<?xml version="1.0" encoding="utf-8"?>
<!-- Generator: Adobe Illustrator 23.0.6, SVG Export Plug-In . SVG Version: 6.00 Build 0)  -->
<svg version="1.1" xmlns="http://www.w3.org/2000/svg" xmlns:xlink="http://www.w3.org/1999/xlink" x="0px" y="0px"
	 viewBox="0 0 1000 1000" style="enable-background:new 0 0 1000 1000;" xml:space="preserve">
<style type="text/css">
	.st0{fill:#5F9548;}
	.st1{fill:#77AD50;}
	.st2{fill:#2E3E51;}
	.st3{fill:#3D4D63;}
	.st4{fill:#39475C;}
	.st5{fill:#4C5D72;}
	.st6{fill:#29384A;}
	.st7{fill:#E94F4F;}
	.st8{fill:#E04646;}
	.st9{fill:#68A34F;}
	.st10{fill:#F26666;}
</style>
<g id="Calque_1">
	<path class="st0" d="M339.08,464.64l22.29,93l-93,22.29c-48.72,11.67-100.07,3.51-142.77-22.68c-42.7-26.2-73.25-68.28-84.93-117
		l-22.28-92.99l93-22.29c48.71-11.68,100.07-3.52,142.76,22.67C296.86,373.84,327.41,415.92,339.08,464.64z"/>
	<path class="st1" d="M356.96,543.43L299,507.88l-21.85-91.18l-19.08,4.57l17.28,72.1l-47.31-29.03l-19.56-81.63l-19.08,4.57
		l14.99,62.55l-47.31-29.02l-12.7-53.01l-19.08,4.57l8.13,33.93l-52.74-32.35l-10.27,16.73l53.1,32.56l-34.5,8.27l4.57,19.08
		l53.58-12.84l47.3,29.02l-63.11,15.12l4.57,19.08l82.2-19.7l47.31,29.02l-63.11,15.12l4.57,19.08l82.2-19.7l57.62,35.35
		L356.96,543.43z"/>
	<path class="st2" d="M331.99,318.44l18-96.44c22.43,4.18,38.79,23.62,39.09,46.44l0.13,10.78l4.01-10
		c8.51-21.18,30.78-33.41,53.21-29.22l-17.99,96.44L331.99,318.44z"/>
	<path class="st3" d="M477.3,336.59c42.89,62.57,26.94,148.06-35.63,190.95c-62.57,42.89-148.06,26.94-190.95-35.63
		c-42.89-62.57-26.94-148.06,35.63-190.95C348.93,258.07,434.41,274.02,477.3,336.59z"/>
	<path class="st4" d="M453.72,310.1c0.55,135.65-96.38,196.47-160.81,221.87c61.25,39.47,142.66,24.18,185.42-34.81
		C521.09,438.15,510.28,356.02,453.72,310.1z"/>
	<path class="st5" d="M293.84,361.09l-15.64-11.88c4.74-6.23,10.14-11.93,16.11-16.99l12.7,14.95
		C302.13,351.32,297.72,355.98,293.84,361.09z"/>
	<path class="st5" d="M284.55,452.1l-17.7,8.45c-14.17-29.76-13.95-64.37,0.59-93.95l17.61,8.66c-3.55,7.23-6.1,14.9-7.57,22.82
		C274.02,416.38,276.5,435.31,284.55,452.1z"/>
	<path class="st4" d="M759.69,429.2c17.68,73.77-27.8,147.9-101.56,165.58c-73.77,17.68-147.9-27.8-165.58-101.56
		c-17.68-73.77,27.8-147.9,101.56-165.58S742.01,355.43,759.69,429.2z"/>
	<path class="st6" d="M674.74,408.68c12.91-0.92,25.24,5.48,31.93,16.55c6.7,11.07,6.63,24.96-0.18,35.97
		c5.29,11.78,3.38,25.55-4.92,35.45s-21.52,14.19-34.05,11.04c-9.74,8.46-23.46,10.62-35.33,5.55
		c-11.87-5.06-19.8-16.46-20.44-29.34c-11.06-6.73-17.41-19.08-16.46-31.98c0.95-12.9,9.05-24.19,20.96-29.22
		c2.63-12.6,12.29-22.55,24.8-25.55C653.56,394.15,666.68,398.64,674.74,408.68z"/>
	<path class="st2" d="M158.65,722.86l-95.41,22.86c-5.31-22.19,5.78-45.05,26.49-54.61l9.78-4.52l-10.77,0.4
		c-22.8,0.86-43.05-14.49-48.37-36.68l95.41-22.86L158.65,722.86z"/>
	<path class="st3" d="M366.65,622.58c17.68,73.77-27.79,147.9-101.56,165.58c-73.77,17.68-147.9-27.8-165.58-101.56
		s27.8-147.9,101.56-165.58C274.85,503.34,348.98,548.81,366.65,622.58z"/>
	<path class="st4" d="M319.77,548.22c0.56,135.66-96.38,196.47-160.81,221.86c61.25,39.47,142.66,24.18,185.42-34.81
		C387.14,676.27,376.33,594.15,319.77,548.22z"/>
	<g>
		<path class="st5" d="M191.04,581l-10.35-16.69c6.66-4.12,13.74-7.51,21.12-10.11l6.53,18.53
			C202.29,574.86,196.49,577.63,191.04,581z"/>
		<path class="st5" d="M149.83,662.67l-19.56,1.56c-2.57-32.85,10.02-65.08,34.17-87.5l13.34,14.39
			c-5.91,5.48-11.04,11.73-15.26,18.6C152.75,625.57,148.31,644.12,149.83,662.67z"/>
	</g>
</g>
<g id="Calque_2">
	<path class="st7" d="M532.27,742.11c-18.12-35.21-13.79-77.78,11.04-108.62l91.32-111.75c11.07-13.54,24.96-24.52,40.7-32.16
		c62.8-29.44,137.61-3.3,168.41,58.84l34.36,68.08c15.3,29.3,18.15,63.52,7.92,94.95s-32.69,57.41-62.3,72.09
		c-15.84,7.68-33.15,11.86-50.75,12.27l-145.95,3.52C587.05,800.07,550.21,777.82,532.27,742.11z"/>
	<path class="st8" d="M546.79,629.23l-3.49,4.27c-24.84,30.83-29.17,73.41-11.05,108.61c17.94,35.72,54.79,57.97,94.75,57.22
		l145.95-3.52c17.6-0.4,34.91-4.59,50.75-12.27c29.45-14.26,51.82-39.89,61.95-71C749.21,739.7,621.71,677.98,546.79,629.23z"/>
	<path class="st9" d="M853.58,683.63c10.49,21.49,36.22,30.67,57.94,20.66l-33.38-66.19l83.35,29.71
		c7.37-24.37-5.68-50.23-29.66-58.78l-72.42-25.82l22.96-72.19c7.38-24.37-5.67-50.24-29.66-58.78l-26.44,83.1l-33.42-66.2
		c-10.18,5.12-17.86,14.12-21.32,24.98c-3.46,10.85-2.41,22.64,2.92,32.71l14.83,29.39l-86.91-30.99
		c-7.37,24.37,5.69,50.23,29.67,58.77l72.48,25.89l-22.97,72.16c-7.37,24.37,5.68,50.23,29.66,58.78l27.55-86.59L853.58,683.63z"/>
	<path class="st9" d="M836.23,605.35l-8.58-17.67l38.66-18.79c33.61-16.3,72.36-18.41,107.54-5.87l6.79,2.38l-6.47,18.53l-6.79-2.38
		c-30.25-10.8-63.57-8.99-92.48,5.02L836.23,605.35z"/>
	<g>
		<path class="st10" d="M682.64,658.13l29.01-14.09l8.58,17.66l-29.01,14.09L682.64,658.13z"/>
		<path class="st10" d="M652.98,599.35l29.01-14.09l8.58,17.66l-29.01,14.09L652.98,599.35z"/>
		<path class="st10" d="M712.32,716.93l29-14.08l8.57,17.66l-29,14.08L712.32,716.93z"/>
		<path class="st10" d="M639.48,715.71l29.01-14.09l8.57,17.66l-29.01,14.09L639.48,715.71z"/>
		<path class="st10" d="M609.8,656.92l29.01-14.09l8.58,17.66l-29.01,14.09L609.8,656.92z"/>
		<path class="st10" d="M566.65,714.5l29.01-14.09l8.58,17.66l-29.01,14.09L566.65,714.5z"/>
		<path class="st10" d="M478.5,713.24l0.02-1.3"/>
		<path class="st10" d="M478.39,708.24l1.27,4.7l0.38-2.06"/>
	</g>
	<path class="st8" d="M640.79,652.6c18.88-40.54,14.58-88.09-11.28-124.58l-86.23,105.49c-24.84,30.83-29.17,73.41-11.05,108.61
		c9.98,19.6,25.89,35.54,45.46,45.56c0.49-0.97,1.11-1.84,1.58-2.82L640.79,652.6z"/>
	<path class="st7" d="M473.51,801.2c-39.57-0.49-75.17-24.14-90.95-60.43l-58.2-133.72c-7.05-16.2-10.59-33.71-10.37-51.37
		c0.87-68.95,57.46-124.15,126.41-123.31l75.28,0.93c68.98,0.86,124.2,57.47,123.34,126.44c-0.22,17.67-4.19,35.09-11.64,51.11
		l-61.5,132.24C549.18,778.92,513.04,801.67,473.51,801.2z"/>
	<path class="st10" d="M487.31,706.46l15.18-32.63l17.13,44.82l18.26-6.99l-23.92-62.6l14.43-30.93l40.6,19.74l8.36-17.75
		l-40.71-19.74l11.32-24.23l50.32-13.18l-5.04-19.07l-41.2,10.86c-1.19-13.78-9.74-25.84-22.37-31.5l21.61-41.91l-17.51-8.96
		l-24.45,47.43l-63.4-0.79l-24.65-48.18l-17.52,8.87l21.47,41.82c-13.52,5.22-22.89,17.67-24.19,32.1l-40.78-12.58l-5.71,18.73
		l50.66,15.68l10.59,24.34l-41.5,17.73l7.68,17.99l41.64-17.73l14.04,32.25l-26.21,59.83l18,7.82l18.95-43.05l13.67,31.45
		c0.75,1.64,1.82,3.11,3.14,4.34l-1.01,47.16l19.7,0.38l0.94-47.93C485.82,709.02,486.66,707.79,487.31,706.46z"/>
</g>
</svg>
