<?xml version="1.0" encoding="utf-8"?>
<!-- Generator: Adobe Illustrator 23.0.6, SVG Export Plug-In . SVG Version: 6.00 Build 0)  -->
<svg version="1.1" xmlns="http://www.w3.org/2000/svg" xmlns:xlink="http://www.w3.org/1999/xlink" x="0px" y="0px"
	 viewBox="0 0 1000 1000" style="enable-background:new 0 0 1000 1000;" xml:space="preserve">
<style type="text/css">
	.st0{fill:#DEDEDE;}
	.st1{fill:#EDEBE6;}
	.st2{fill:#E0DEC1;}
	.st3{fill:#DDD8B8;}
	.st4{fill:#CCCCCC;}
</style>
<g id="Calque_1">
</g>
<g id="Calque_2">
	<path class="st0" d="M538.05,303.61H450.3l14.62-175.49h58.5L538.05,303.61z"/>
	<path class="st1" d="M347.93,362.11h292.49v541.1H347.93V362.11z"/>
	<g>
		<path class="st0" d="M450.3,55h87.75v58.5H450.3V55z"/>
		<path class="st0" d="M596.55,303.61v-29.25c40.4,0,73.12-32.72,73.12-73.12s-32.72-73.12-73.12-73.12H406.43V98.87h190.12
			c56.49,0,102.37,45.88,102.37,102.37S653.03,303.61,596.55,303.61z"/>
		<path class="st0" d="M391.81,274.37h204.74v87.75H391.81V274.37z"/>
	</g>
	<path class="st2" d="M391.81,420.61h29.25v29.25h-29.25V420.61z"/>
	<path class="st2" d="M391.81,479.11h29.25V596.1h-29.25V479.11z"/>
	<path class="st3" d="M347.93,865.37v37.84h292.49v-431.6C574.61,681.11,454.33,799.38,347.93,865.37z"/>
	<path class="st4" d="M525.8,157.37l-2.38-29.25h-58.5l-2.38,29.25H525.8z"/>
</g>
</svg>
