<?xml version="1.0" encoding="utf-8"?>
<!-- Generator: Adobe Illustrator 23.0.6, SVG Export Plug-In . SVG Version: 6.00 Build 0)  -->
<svg version="1.1" xmlns="http://www.w3.org/2000/svg" xmlns:xlink="http://www.w3.org/1999/xlink" x="0px" y="0px"
	 viewBox="0 0 1000 1000" style="enable-background:new 0 0 1000 1000;" xml:space="preserve">
<style type="text/css">
	.st0{fill:#F0614A;}
	.st1{fill:#BF7341;}
	.st2{fill:#D6533E;}
	.st3{fill:#965735;}
	.st4{fill:#FEDA6F;}
	.st5{fill:#FED35B;}
	.st6{fill:#F0DBC2;}
	.st7{fill:#FFCD6B;}
</style>
<g id="Calque_1">
</g>
<g id="Calque_2">
	<rect x="172.51" y="222.51" class="st0" width="387.35" height="542.29"/>
	<rect x="559.89" y="222.51" class="st1" width="129.12" height="542.29"/>
	<polygon class="st2" points="559.86,222.51 172.51,222.51 120.86,119.21 508.21,119.21 	"/>
	<polygon class="st3" points="559.86,222.51 688.97,222.51 740.62,119.21 508.21,119.21 	"/>
	<g>
		<rect x="211.24" y="261.24" class="st2" width="64.56" height="25.82"/>
		<rect x="211.24" y="312.89" class="st2" width="64.56" height="25.82"/>
		<rect x="211.24" y="700.24" class="st2" width="25.82" height="25.82"/>
		<rect x="262.89" y="700.24" class="st2" width="51.65" height="25.82"/>
	</g>
	<g>
		<path class="st4" d="M457.8,564.46c-28.6-7.88-58.18,8.91-66.07,37.52C420.33,609.86,449.91,593.06,457.8,564.46L457.8,564.46z"/>
		<path class="st4" d="M375.22,523.48c23.58,18.01,28.09,51.73,10.08,75.3C361.72,580.77,357.21,547.05,375.22,523.48L375.22,523.48
			z"/>
		<path class="st4" d="M480.85,518.01c-28.6-7.88-58.18,8.91-66.07,37.52C443.38,563.41,472.96,546.62,480.85,518.01L480.85,518.01z
			"/>
		<path class="st4" d="M398.27,477.03c23.58,18.01,28.09,51.73,10.08,75.3C384.77,534.32,380.26,500.61,398.27,477.03L398.27,477.03
			z"/>
		<path class="st4" d="M503.9,471.57c-28.6-7.88-58.18,8.91-66.07,37.52C466.43,516.97,496.01,500.17,503.9,471.57L503.9,471.57z"/>
		<path class="st4" d="M488.72,397.19L488.72,397.19c-34.38,8.55-50.27,41.71-35.49,74.07C487.61,462.71,503.5,429.55,488.72,397.19
			z"/>
		<path class="st4" d="M421.32,430.58c23.58,18.01,28.09,51.73,10.08,75.3C407.82,487.88,403.31,454.16,421.32,430.58L421.32,430.58
			z"/>
	</g>
	<g>
		<path class="st5" d="M240.33,416.98l8.43-5.2l113.15,183.33l-8.43,5.2L240.33,416.98z"/>
		<path class="st5" d="M345.3,489.75c-21.81,20.11-23.2,54.1-3.08,75.91C364.03,545.56,365.41,511.57,345.3,489.75L345.3,489.75z"/>
		<path class="st5" d="M266.85,538.18c27.75-10.49,58.76,3.5,69.25,31.26C308.35,579.93,277.34,565.94,266.85,538.18L266.85,538.18z
			"/>
		<path class="st5" d="M318.06,445.63c-21.81,20.11-23.2,54.1-3.08,75.91C336.79,501.44,338.17,467.45,318.06,445.63L318.06,445.63z
			"/>
		<path class="st5" d="M239.62,494.06c27.75-10.49,58.76,3.5,69.25,31.26C281.11,535.81,250.11,521.82,239.62,494.06L239.62,494.06z
			"/>
		<path class="st5" d="M290.82,401.51c-21.81,20.11-23.2,54.1-3.08,75.91C309.55,457.32,310.93,423.33,290.82,401.51L290.82,401.51z
			"/>
		<path class="st5" d="M219.66,375.07L219.66,375.07c-10.92,33.7,8.82,64.72,44.11,69.28C274.69,410.66,254.95,379.64,219.66,375.07
			z"/>
		<path class="st5" d="M212.38,449.94c27.75-10.49,58.76,3.5,69.25,31.26C253.87,491.69,222.87,477.7,212.38,449.94L212.38,449.94z"
			/>
		<path class="st5" d="M464.18,436.92l8.88,4.4l-95.75,193.09l-8.88-4.4L464.18,436.92z"/>
	</g>
	<path class="st6" d="M554.82,868.09h216.66c49.76-32.33,83.05-84.69,91.19-143.47l7.06-50.2H456.56l7.06,50.2
		C471.77,783.4,505.05,835.76,554.82,868.09z"/>
	<g>
		<rect x="327.48" y="855.18" class="st7" width="38.74" height="25.82"/>
		
			<rect x="250.04" y="824.05" transform="matrix(0.7071 -0.7071 0.7071 0.7071 -518.5851 432.6438)" class="st7" width="25.82" height="36.51"/>
		<rect x="366.22" y="803.53" class="st7" width="38.74" height="25.82"/>
		<rect x="159.59" y="842.26" class="st7" width="38.74" height="25.82"/>
		
			<rect x="843.98" y="836.88" transform="matrix(0.7071 -0.7071 0.7071 0.7071 -353.6949 856.3753)" class="st7" width="25.82" height="36.51"/>
	</g>
	<path class="st6" d="M818.09,502.61l10.6-176.81c1.24-20.12-14.07-37.43-34.2-38.67c-0.74-0.04-1.48-0.06-2.22-0.06l0,0
		c-20.15,0-36.5,16.35-36.49,36.51c0,0.74,0.03,1.48,0.06,2.22l10.6,176.81c-16.89,13.43-26.46,34.03-25.82,55.6
		c0,35.65,23.12,64.56,51.65,64.56s51.65-28.91,51.65-64.56C844.54,536.65,834.98,516.04,818.09,502.61z"/>
	<path class="st7" d="M802.19,756.18c-10.48,0.05-20.54,4.13-28.1,11.41c-1.08-22.19-19.2-39.74-41.42-40.1
		c-11.69,0.05-22.79,5.1-30.51,13.87c-7.1-21.55-30.33-33.26-51.88-26.16c-12.37,4.08-22.08,13.78-26.16,26.16
		c-7.72-8.77-18.82-13.81-30.51-13.87c-17.68,0.19-33.31,11.53-39.01,28.26c-7.72-8.77-18.82-13.8-30.51-13.87
		c-23.38,0.37-42.05,19.61-41.72,43c0,0.43,0.12,0.83,0.13,1.29c16.24,33.35,41.23,61.65,72.31,81.91h216.66
		c30.24-19.73,54.77-47.05,71.14-79.23C838.33,769.92,821.61,756.39,802.19,756.18z"/>
</g>
</svg>
