<?xml version="1.0" encoding="utf-8"?>
<!-- Generator: Adobe Illustrator 23.0.6, SVG Export Plug-In . SVG Version: 6.00 Build 0)  -->
<svg version="1.1" xmlns="http://www.w3.org/2000/svg" xmlns:xlink="http://www.w3.org/1999/xlink" x="0px" y="0px"
	 viewBox="0 0 1000 1000" style="enable-background:new 0 0 1000 1000;" xml:space="preserve">
<style type="text/css">
	.st0{fill:#66934C;}
	.st1{fill:#638F43;}
	.st2{fill:#74A15A;}
	.st3{fill:#79AD54;}
	.st4{fill:#72A64E;}
	.st5{fill:#9BBC50;}
	.st6{fill:#FEDB6D;}
	.st7{fill:#F7CF59;}
	.st8{fill:#92563A;}
	.st9{fill:#875036;}
</style>
<g id="Calque_1">
</g>
<g id="Calque_2">
	<g id="Flat">
		<path class="st0" d="M561.57,474.82c-0.03,115.96-94.07,209.94-210.02,209.9s-209.94-94.07-209.9-210.02
			c0.01-36.15,9.35-71.68,27.13-103.16c21.68-38.67,35.8-81.11,41.62-125.05l1.02-7.46c10.56-77.43,81.88-131.64,159.31-121.08
			c62.98,8.59,112.5,58.11,121.08,121.08l1.02,7.46c2.86,20.9,7.61,41.5,14.2,61.54c7.5,22.78,17.11,44.8,28.7,65.8
			C552.73,404.76,561.62,439.51,561.57,474.82z"/>
		<path class="st1" d="M561.57,474.82c0.22,115.74-93.43,209.75-209.17,209.97c-57.43,0.11-112.39-23.35-152.03-64.91
			C348.53,576.1,450.1,478.05,507.02,308.02c7.5,22.78,17.11,44.8,28.7,65.8C552.73,404.76,561.62,439.51,561.57,474.82
			L561.57,474.82z"/>
		<path class="st2" d="M244.77,355.97l-22.88-9.32c3.18-7.82,6.15-15.87,8.81-23.93l23.45,7.76
			C251.32,339.07,248.17,347.64,244.77,355.97z"/>
		<path class="st2" d="M187.16,528.07c-5.62-17.19-8.48-35.16-8.46-53.25c-0.01-29.79,7.68-59.08,22.32-85.03
			c3.55-6.27,6.97-12.74,10.15-19.22l22.17,10.89c-3.4,6.91-7.04,13.81-10.83,20.5c-12.54,22.23-19.13,47.33-19.11,72.85
			c-0.01,15.47,2.43,30.85,7.24,45.56L187.16,528.07z"/>
		<path class="st3" d="M857.99,338.96c-95.45,0.05-172.87-77.29-172.91-172.74c0-0.06,0-0.11,0-0.17
			c95.42-0.07,172.84,77.23,172.91,172.65C857.99,338.79,857.99,338.87,857.99,338.96z"/>
		<path class="st4" d="M857.99,338.96c-65.33,0.02-125.09-36.78-154.46-95.13c44.96,17.38,92.62,26.75,140.81,27.7
			C853.38,292.86,858.02,315.79,857.99,338.96z"/>
		<path class="st3" d="M660.38,275.15h-24.7v-9.72c-0.7-8.34-3.43-71.66,65.09-144.87l18.04,16.88
			c-33.32,35.61-47.45,68.02-53.43,88.95c-6.45,22.57-5.08,37-5.07,37.14c0.05,0.44,0.08,0.89,0.07,1.33V275.15z"/>
		<path class="st5" d="M789.24,394.69l-1.02-7.46c-9.56-70.11-69.44-122.38-140.2-122.38c-70.76,0-130.64,52.27-140.2,122.38
			l-1.02,7.46c-5.81,43.95-19.94,86.39-41.62,125.05c-17.83,31.5-27.18,67.09-27.13,103.28c0,115.86,95.76,210.85,211.61,209.96
			c115.99-0.94,209.25-95.72,208.31-211.71c-0.28-34.71-9.16-68.82-25.85-99.26C810.36,482.43,795.34,439.47,789.24,394.69
			L789.24,394.69z"/>
		<path class="st6" d="M648.06,783.59c-88.7-0.01-160.6-71.92-160.6-160.62c0-27.64,7.14-54.81,20.71-78.88
			c24.81-44.1,40.96-92.55,47.58-142.72l1.02-7.47c6.87-50.39,53.3-85.68,103.69-78.8c40.98,5.59,73.21,37.82,78.8,78.8l1.02,7.46
			c6.76,49.55,23.09,98.16,48.56,144.47c42.62,77.78,14.11,175.38-63.67,218c-23.28,12.75-49.35,19.54-75.89,19.75H648.06z"/>
		<path class="st7" d="M783.88,647.73c0,61.39-49.77,111.16-111.16,111.16c-61.39,0-111.16-49.77-111.16-111.16
			c0-61.39,49.77-111.16,111.16-111.16c35.33,0,68.56,16.8,89.51,45.25C776.3,600.92,783.88,624.02,783.88,647.73z"/>
		<path class="st8" d="M759.18,623.03c0,61.39-49.77,111.16-111.16,111.16c-61.39,0-111.16-49.77-111.16-111.16
			s49.77-111.16,111.16-111.16c35.33,0,68.56,16.8,89.51,45.25C751.6,576.22,759.18,599.31,759.18,623.03z"/>
		<path class="st9" d="M759.18,623.03c0.01,61.38-49.75,111.15-111.13,111.16c-28.91,0-56.67-11.25-77.42-31.39
			c67.78-32.58,123.32-80.34,166.91-145.68C751.63,576.2,759.22,599.31,759.18,623.03L759.18,623.03z"/>
	</g>
</g>
</svg>
