<?xml version="1.0" encoding="utf-8"?>
<!-- Generator: Adobe Illustrator 23.0.6, SVG Export Plug-In . SVG Version: 6.00 Build 0)  -->
<svg version="1.1" xmlns="http://www.w3.org/2000/svg" xmlns:xlink="http://www.w3.org/1999/xlink" x="0px" y="0px"
	 viewBox="0 0 1000 1000" style="enable-background:new 0 0 1000 1000;" xml:space="preserve">
<style type="text/css">
	.st0{fill:#F5A9A2;}
	.st1{fill:#E68783;}
	.st2{fill:#F0A09C;}
	.st3{fill:#DE7C78;}
</style>
<g id="Calque_1">
</g>
<g id="Calque_2">
	<g>
		<path class="st0" d="M264.21,639.34c39.81-41.84,21.79-60.77,61.6-102.61s57.83-22.91,97.66-64.74s21.81-60.8,61.65-102.65
			s57.83-22.91,97.66-64.76s21.83-60.81,61.66-102.73c39.54-41.5,55.79-21.79,94.94-62.4l-52.48-54.25
			c-39.85,41.88-55.97,21.45-95.82,63.32s-21.83,60.81-61.66,102.73s-57.85,22.87-97.66,64.76s-21.81,60.8-61.65,102.65
			s-57.83,22.91-97.66,64.74c-39.82,41.84-21.81,60.74-61.6,102.57s-57.82,17.73-97.63,59.57l51.64,55.09l1.72-1.72
			C206.39,657.07,224.4,681.16,264.21,639.34z"/>
		<path class="st0" d="M831.21,234.37c-38.05,38.49-54.38,19.93-93.39,60.92c-39.84,41.88-21.83,60.81-61.66,102.73
			c-39.84,41.92-57.85,22.87-97.66,64.76c-39.81,41.89-21.81,60.8-61.65,102.65c-39.84,41.85-57.83,22.91-97.66,64.74
			s-21.81,60.74-61.6,102.57s-57.82,17.73-97.63,59.57l-4.74,4.74l58.1,61.97c39.81-41.84,55.93-22.89,95.74-64.73
			c39.81-41.84,21.79-60.77,61.6-102.59c39.81-41.82,57.83-22.91,97.66-64.76c39.82-41.85,21.8-60.8,61.64-102.65
			c39.84-41.85,57.83-22.91,97.66-64.76c39.82-41.85,21.83-60.81,61.68-102.73c39.85-41.92,57.86-22.89,97.71-64.79L831.21,234.37z"
			/>
	</g>
	<path class="st1" d="M357.6,732.73c39.81-41.84,21.79-60.77,61.6-102.61c39.81-41.84,57.83-22.91,97.66-64.74
		c39.82-41.84,21.81-60.8,61.65-102.65c39.84-41.85,57.83-22.91,97.66-64.76c39.82-41.85,21.83-60.81,61.66-102.73
		c39.01-40.98,55.34-22.43,93.39-60.92l-91.84-94.87c-39.14,40.61-55.39,20.89-94.94,62.44c-39.84,41.88-21.83,60.81-61.66,102.73
		c-39.84,41.92-57.85,22.87-97.66,64.76s-21.81,60.8-61.65,102.65s-57.83,22.91-97.66,64.74s-21.81,60.74-61.6,102.57
		c-39.78,41.82-57.82,17.73-97.63,59.57l-1.72,1.72l90.37,96.4l4.74-4.74C299.78,750.46,317.79,774.55,357.6,732.73z"/>
	<g>
		<path class="st2" d="M264.21,639.34c27.47-28.87,27.42-46.84,37.82-68.95c-29.56,4.44-58.81,8.23-87.47,11.45
			c-1.23,1.33-2.36,2.67-3.72,4.14c-39.81,41.82-57.82,17.73-97.63,59.57l51.64,55.09l1.72-1.72
			C206.39,657.07,224.4,681.16,264.21,639.34z"/>
		<path class="st2" d="M516.85,565.37c-39.82,41.84-57.83,22.91-97.66,64.74c-39.82,41.84-21.81,60.78-61.6,102.61
			s-57.82,17.73-97.63,59.57l-4.74,4.74l58.1,61.97c39.81-41.84,55.93-22.89,95.74-64.73c39.81-41.84,21.79-60.77,61.6-102.59
			c39.81-41.82,57.83-22.91,97.66-64.76c39.82-41.85,21.8-60.8,61.64-102.65c39.84-41.85,57.83-22.91,97.66-64.76
			c6.26-6.46,11.89-13.5,16.81-21.04c-63.26,32.67-129.56,59.09-197.94,78.87C540.48,535.44,530.32,551.89,516.85,565.37z"/>
	</g>
	<path class="st3" d="M357.6,732.73c39.81-41.84,21.79-60.77,61.6-102.61c39.81-41.84,57.83-22.91,97.66-64.74
		c13.47-13.49,23.63-29.94,29.63-48.03c-80.15,23.33-161.83,41.06-244.45,53.05c-10.41,22.11-10.35,40.02-37.82,68.95
		c-39.81,41.82-57.82,17.73-97.63,59.57l-1.72,1.72l90.37,96.4l4.74-4.74C299.78,750.46,317.79,774.55,357.6,732.73z"/>
</g>
</svg>
