<?xml version="1.0" encoding="utf-8"?>
<!-- Generator: Adobe Illustrator 23.0.6, SVG Export Plug-In . SVG Version: 6.00 Build 0)  -->
<svg version="1.1" xmlns="http://www.w3.org/2000/svg" xmlns:xlink="http://www.w3.org/1999/xlink" x="0px" y="0px"
	 viewBox="0 0 1000 1000" style="enable-background:new 0 0 1000 1000;" xml:space="preserve">
<style type="text/css">
	.st0{fill:#843535;}
	.st1{fill:#EAD7BC;}
	.st2{fill:#FAE5C9;}
	.st3{fill:#F35244;}
	.st4{fill:#FFB531;}
	.st5{fill:#C84431;}
	.st6{fill:#FEDB6D;}
</style>
<g id="Calque_1">
</g>
<g id="Calque_2">
	<g id="Flat">
		<path class="st0" d="M395.56,64h235.09c8.11,0,14.69,6.58,14.69,14.69v73.47l0,0H380.87l0,0V78.69
			C380.87,70.58,387.44,64,395.56,64z"/>
		<path class="st1" d="M704.12,534.19v337.95c0,24.34-19.74,44.08-44.08,44.08l0,0H366.17c-24.34,0-44.08-19.74-44.08-44.08l0,0
			V534.19c-0.04-28.93,6.52-57.5,19.17-83.51c25.13-51.89,40.56-107.95,45.53-165.39c3.74-42.55,2.06-85.41-5-127.54l-0.94-5.58
			h264.48l-0.94,5.58c-2.94,17.61-4.95,35.37-6.02,53.19c-2.1,34.29-0.63,68.7,4.39,102.69c6.96,47.57,21.18,93.8,42.17,137.05
			C697.6,476.69,704.16,505.25,704.12,534.19z"/>
		<path class="st2" d="M630.65,225.63H439.64c-8.11,0-14.69-6.58-14.69-14.69c0-8.11,6.58-14.69,14.69-14.69h191.01
			c8.11,0,14.69,6.58,14.69,14.69C645.35,219.05,638.77,225.63,630.65,225.63z"/>
		<path class="st0" d="M704.12,534.19v337.95c0,24.34-19.74,44.08-44.08,44.08l0,0H366.17c-24.34,0-44.08-19.74-44.08-44.08l0,0
			V534.19c-0.04-28.93,6.52-57.5,19.17-83.51c25.13-51.89,40.56-107.95,45.53-165.39c1.74-0.37,3.51-0.62,5.29-0.75
			c24.26-1.92,45.48,16.2,47.39,40.45c0,0.05,0.01,0.1,0.01,0.16c12.45-11.23,30.19-14.43,45.77-8.25
			c6.4-23.49,30.63-37.34,54.12-30.94c10.31,2.81,19.25,9.27,25.15,18.18c13.45-20.29,40.8-25.84,61.1-12.39
			c7.93,5.25,13.94,12.93,17.15,21.88c6.96,47.57,21.18,93.8,42.17,137.05C697.6,476.69,704.16,505.25,704.12,534.19L704.12,534.19z
			"/>
		<path class="st3" d="M645.35,548.88v264.48c-0.01,24.34-19.74,44.07-44.08,44.08H424.95c-24.34-0.01-44.07-19.74-44.08-44.08
			V548.88c0-73.03,59.21-132.24,132.25-132.23c35.07,0,68.7,13.93,93.5,38.73c5.13,5.13,9.83,10.67,14.07,16.57
			C636.76,494.37,645.39,521.28,645.35,548.88z"/>
		<path class="st4" d="M645.35,548.88v59.78L380.87,718.11V571.18l239.81-99.24C636.76,494.37,645.39,521.28,645.35,548.88z"/>
		<path class="st5" d="M469.03,725.2h88.16v29.39h-88.16V725.2z"/>
		<path class="st5" d="M454.33,783.97h117.55v29.39H454.33V783.97z"/>
		<path class="st6" d="M469.03,519.49h88.16v73.47h-88.16V519.49z"/>
	</g>
</g>
</svg>
