<?xml version="1.0" encoding="utf-8"?>
<!-- Generator: Adobe Illustrator 23.0.6, SVG Export Plug-In . SVG Version: 6.00 Build 0)  -->
<svg version="1.1" xmlns="http://www.w3.org/2000/svg" xmlns:xlink="http://www.w3.org/1999/xlink" x="0px" y="0px"
	 viewBox="0 0 1000 1000" style="enable-background:new 0 0 1000 1000;" xml:space="preserve">
<style type="text/css">
	.st0{fill:#5F8C46;}
	.st1{fill:#6A9C46;}
	.st2{fill:#79AD54;}
	.st3{fill:#89BA66;}
</style>
<g id="Calque_1">
</g>
<g id="Calque_2">
	<g id="Flat">
		<path class="st0" d="M589,406.08l-28.25,108.88l103.5,29.28c22.74,6.4,47.11,3.06,67.28-9.24l108.33-65.45
			c23.76-14.59,40.89-37.89,47.73-64.92c14.81-57.06-17.16-115.76-71.41-131.11c-26.12-7.36-54.13-3.51-77.31,10.62l-108.34,65.45
			C609.86,362.28,594.96,382.56,589,406.08L589,406.08z"/>
		<path class="st0" d="M596.35,400.21l-108.88,28.25l-29.28-103.5c-6.4-22.74-3.06-47.11,9.24-67.28l65.45-108.33
			c14.59-23.76,37.89-40.89,64.92-47.73c57.06-14.81,115.76,17.16,131.11,71.41c7.36,26.12,3.51,54.13-10.62,77.31l-65.45,108.34
			C640.15,379.35,619.88,394.26,596.35,400.21z"/>
		<g>
			<path class="st1" d="M831.48,408.6c-17.19,5.79-36.18,0.88-48.41-12.52l57.79-34.91l-13.67-22.63l-57.14,34.52
				c-4.96-25.49,20.26-46.53,21.5-47.54l-16.6-20.58c-16.99,13.7-41.55,46.54-28.42,82.33L553.91,503.64l13.67,22.63l192.48-116.29
				c17.62,21.1,39.48,27.36,57.22,27.36c8.05,0.07,16.04-1.29,23.61-4.03L831.48,408.6z"/>
			<path class="st1" d="M626.84,256.66c36.02,0,72.23-27.73,74.2-29.26l-16.2-20.88c-11.01,8.51-39.76,25.94-62.03,23.49l41.08-68
				l-22.63-13.67l-41.29,68.34c-16.88-20.29-12.97-50.38-12.92-50.73l-13.08-1.87l-13.08-1.92c-0.31,2.13-6.65,48.64,24.91,77.97
				L476.16,421.63l22.63,13.67L608.38,253.9C614.35,255.78,620.58,256.71,626.84,256.66z"/>
			<path class="st1" d="M825.45,468.78c59.8,31.36,83.07,105.66,51.97,165.97c-14.85,28.89-40.59,50.68-71.53,60.58l-142.6,45.41
				c-26.86,8.55-56.03,6-80.99-7.1l-63.39-28.9c-15.72-7.17-33.4-8.8-50.16-4.63l-0.55,0.14
				c-69.79,21.29-134.62,56.32-190.68,103.03l-57.72,48.09c-10.32,8.6-23.34,13.32-36.78,13.32h-1.07
				c-17.1,0.02-33.32-7.6-44.22-20.78l39.66-32.09c0,0,1.65,6.06,67.75-46.81c49.31-39.45,127.41-90.89,213.53-118.31
				c13.71-4.3,25.34-13.54,32.63-25.92l36.23-62.02c12.93-25.14,35.32-44.11,62.25-52.72l142.6-45.41
				C763.26,450.78,796.77,453.72,825.45,468.78z"/>
			<path class="st1" d="M520.43,163.76c-31.36-59.8-105.66-83.07-165.97-51.97c-28.89,14.85-50.68,40.59-60.58,71.53l-45.41,142.6
				c-8.55,26.86-6,56.03,7.1,80.99l28.9,63.39c7.17,15.72,8.8,33.4,4.63,50.16l-0.14,0.55c-21.29,69.79-56.32,134.62-103.03,190.68
				l-48.09,57.72c-8.6,10.32-13.32,23.34-13.32,36.78v1.07c-0.02,17.1,7.6,33.32,20.78,44.22l32.09-39.66c0,0-6.06-1.65,46.81-67.75
				c39.45-49.31,90.89-127.41,118.31-213.53c4.3-13.71,13.54-25.34,25.92-32.63l62.02-36.23c25.14-12.93,44.11-35.32,52.72-62.25
				l45.41-142.6C538.43,225.96,535.49,192.44,520.43,163.76L520.43,163.76z"/>
		</g>
		<path class="st2" d="M405.35,271.94c39.11,0,65.39-30.45,74.68-49.06l-23.64-11.82c-4.35,7.82-10,14.83-16.71,20.75
			c-10.98,9.61-23.13,14.16-36.24,13.64c8.55-52,11.6-90.24,11.86-93.55l-26.36-2.03c-0.06,0.79-3.01,37.62-11.27,88.4
			c-27.68-15.04-28.42-46.28-28.43-47.8l-13.21,0.07h-13.22c0,19.86,10.86,58.52,50.18,74.74c-4.6,24.89-10.37,51.87-17.54,78.9
			c-7.99-4.29-15-11.33-20.96-21.09c-5.46-9.14-9.49-19.07-11.93-29.43l-25.92,5.22c4.23,21.12,19.9,57.2,51.52,71.05
			c-6.68,22.61-14.77,44.78-24.2,66.39l24.16,10.74c10.17-23.27,18.86-47.15,26.03-71.51c0.52,0.01,1.02,0.05,1.54,0.05
			c61.69,0,77.97-46.71,78.63-48.69l-25.08-8.36c-0.1,0.29-9.73,27.75-47.61,30.39c7.02-26.57,12.69-52.92,17.23-77.3
			C401.06,271.81,403.23,271.94,405.35,271.94z"/>
		<path class="st2" d="M584.64,283.06c-32.23,0-63.13,12.8-85.92,35.59L391.57,425.8c-18.63,18.63-29.1,43.91-29.1,70.26v91.03
			L244.79,704.77c-27.23,27.23-57.08,51.7-89.12,73.06l-11.96,7.98c-11.98,7.98-19.17,21.43-19.17,35.82
			c0,23.78,19.27,43.05,43.05,43.05c0,0,0,0,0,0c14.39,0,27.84-7.19,35.82-19.17l7.98-11.96c21.36-32.04,45.83-61.89,73.06-89.12
			l117.68-117.68h91.03c26.35,0,51.62-10.47,70.26-29.1l107.15-107.15c22.79-22.79,35.59-53.69,35.59-85.92
			C706.15,337.46,651.75,283.06,584.64,283.06L584.64,283.06z"/>
		<path class="st3" d="M637.69,443.55c-0.53,0.31-49.15,28.75-81.68,8.34l80.18-80.18l-18.69-18.69l-78.82,78.82
			c-14.17-32.2,11.09-75.41,11.39-75.91l-11.35-6.77l-11.33-6.8c-7.42,13.1-12.95,27.18-16.42,41.83
			c-6.04,26.15-3.18,49.05,8.17,67.19l-59.78,59.78c-14.17-32.2,11.09-75.41,11.39-75.91l-11.35-6.77l-11.33-6.8
			c-7.42,13.1-12.95,27.18-16.42,41.83c-6.04,26.15-3.18,49.05,8.17,67.19L406,564.53l18.69,18.69l33.01-33.01
			c13,9.84,28.79,14.85,46.74,14.85c8.65-0.06,17.26-1.09,25.68-3.09c14.65-3.46,28.74-8.99,41.83-16.42l-13.58-22.68
			c-0.53,0.31-49.15,28.75-81.68,8.34l60.32-60.31c13,9.84,28.79,14.85,46.74,14.85c8.65-0.06,17.26-1.09,25.68-3.09
			c14.65-3.46,28.74-8.99,41.83-16.42L637.69,443.55z"/>
		<path class="st2" d="M732.67,595.89c33.17-10.29,66.12-18.62,94.09-22.12l-3.28-26.23c-27.85,3.48-59.9,11.32-92.16,21.06
			c4.46-19.71,16.61-39.44,22.55-47.33l-21.08-15.95c-6.61,9.11-12.36,18.81-17.18,28.98c-7.36,15.51-11.45,29.95-12.28,43.18
			c-20.77,6.89-41.14,14.27-60.06,21.48c4.3-20.01,16.71-40.21,22.74-48.22l-21.08-15.95c-6.61,9.11-12.36,18.81-17.18,28.98
			c-7.91,16.67-12.04,32.1-12.4,46.12c-41.07,16.47-70.49,29.98-73.37,31.31l11.08,24c0.68-0.31,28.22-12.96,67.56-28.83
			c6.53,11.6,20.26,22.39,41.64,32.72c11.8,5.64,23.98,10.44,36.46,14.39l7.67-25.3c-24.11-7.31-51.6-20.92-60.71-31.71
			c19.19-7.41,40.08-15.1,61.4-22.28c5.82,12.64,19.98,24.3,43.04,35.44c11.8,5.63,23.98,10.44,36.46,14.38l7.67-25.3
			C769.33,621.12,740.77,606.83,732.67,595.89L732.67,595.89z"/>
	</g>
</g>
</svg>
