<?xml version="1.0" encoding="utf-8"?>
<!-- Generator: Adobe Illustrator 23.0.6, SVG Export Plug-In . SVG Version: 6.00 Build 0)  -->
<svg version="1.1" xmlns="http://www.w3.org/2000/svg" xmlns:xlink="http://www.w3.org/1999/xlink" x="0px" y="0px"
	 viewBox="0 0 1000 1000" style="enable-background:new 0 0 1000 1000;" xml:space="preserve">
<style type="text/css">
	.st0{fill:#EAEAEA;}
	.st1{fill:#D8D7DA;}
	.st2{fill:#D7F3FF;}
	.st3{fill:#BDEBFF;}
	.st4{fill:#66CCD1;}
	.st5{fill:#4BBCBC;}
	.st6{fill:#C6C5CA;}
	.st7{fill:#FFFFFF;}
	.st8{fill:#DCFFFF;}
</style>
<g id="Calque_1">
</g>
<g id="Calque_2">
	<circle class="st0" cx="522.1" cy="265.58" r="206.37"/>
	<path class="st1" d="M522.11,59.22c-113.97,0-206.36,92.39-206.36,206.36s92.39,206.36,206.36,206.36c5.62,0,11.18-0.23,16.68-0.67
		V315.52c-66.27-108.44-38.17-200.24-5.48-255.99C529.6,59.33,525.87,59.22,522.11,59.22z"/>
	<path class="st2" d="M723.32,301.35H320.89l-72.75,462.92C234.71,849.74,300.78,927,387.29,927h269.63
		c86.51,0,152.58-77.26,139.15-162.73L723.32,301.35z"/>
	<path class="st3" d="M320.89,301.35l-72.75,462.92C234.71,849.74,300.78,927,387.29,927h49.98
		c-38.92-103.22-11.74-232.62-2.86-352.42c12.9-174.1,118.15-212.09,118.15-212.09v-61.14L320.89,301.35L320.89,301.35z"/>
	<path class="st4" d="M724.49,362.49H319.73c-32.52,0-59.12-26.6-59.12-59.12l0,0c0-32.52,26.6-59.12,59.12-59.12h404.76
		c32.52,0,59.12,26.6,59.12,59.12l0,0C783.61,335.89,757,362.49,724.49,362.49z"/>
	<path class="st5" d="M411.26,303.37L411.26,303.37c0-32.52,26.6-59.12,59.12-59.12H319.73c-32.52,0-59.12,26.6-59.12,59.12l0,0
		c0,32.52,26.6,59.12,59.12,59.12h150.65C437.86,362.49,411.26,335.89,411.26,303.37z"/>
	<path class="st1" d="M522.11,59.22c-19.46,0-38.29,2.7-56.14,7.73c3.77,27.64,27.46,48.95,56.14,48.95
		c28.68,0,52.37-21.31,56.14-48.95C560.4,61.92,541.57,59.22,522.11,59.22z"/>
	<path class="st6" d="M330.21,189.55c7.74,3.97,16.51,6.22,25.81,6.22c31.31,0,56.68-25.38,56.68-56.68
		c0-14.75-5.63-28.17-14.86-38.26C367.87,123.47,344.27,154.1,330.21,189.55z"/>
	<path class="st1" d="M714,189.55c-14.06-35.45-37.66-66.08-67.63-88.72c-9.23,10.08-14.86,23.51-14.86,38.26
		c0,31.31,25.38,56.68,56.68,56.68C697.49,195.77,706.26,193.52,714,189.55z"/>
	<path class="st7" d="M726.08,775.27l-39.92-254.02l0,0c0,0-12.74-81.22-94.81-55.3c-10.27,3.24-21.49,1.82-30.5-4.08
		c-11.14-7.29-24.44-11.53-38.75-11.53c-14.72,0-28.38,4.49-39.71,12.17c-8.45,5.73-19.12,7.25-28.96,4.52
		c-86.16-23.84-95.38,54.21-95.38,54.21l-39.92,254.02c-3.18,20.22,2.26,39.93,15.32,55.62c13.57,16.3,34.03,25.26,55.23,25.26
		h266.84c21.21,0,41.67-8.96,55.24-25.26C723.82,815.2,729.26,795.49,726.08,775.27z"/>
	<path class="st6" d="M522.11,59.22c-19.46,0-38.29,2.7-56.14,7.73c3.18,23.27,20.47,42.04,42.96,47.4
		c6.46-20.81,15.23-39.21,24.37-54.81C529.59,59.35,525.86,59.22,522.11,59.22z"/>
	<path class="st8" d="M434.41,574.58c3.22-43.52,12.22-78.54,23.9-106.58c-1.64-0.22-3.27-0.51-4.88-0.95
		c-86.16-23.84-95.38,54.21-95.38,54.21l-39.92,254.02c-3.18,20.22,2.26,39.93,15.32,55.62c13.57,16.3,34.03,25.26,55.23,25.26h31.7
		C409.35,767.82,427.47,668.27,434.41,574.58z"/>
</g>
</svg>
