<?xml version="1.0" encoding="utf-8"?>
<!-- Generator: Adobe Illustrator 23.0.6, SVG Export Plug-In . SVG Version: 6.00 Build 0)  -->
<svg version="1.1" xmlns="http://www.w3.org/2000/svg" xmlns:xlink="http://www.w3.org/1999/xlink" x="0px" y="0px"
	 viewBox="0 0 1000 1000" style="enable-background:new 0 0 1000 1000;" xml:space="preserve">
<style type="text/css">
	.st0{fill:#0198E2;}
	.st1{fill:#93D6F4;}
	.st2{fill:#4BB7EA;}
	.st3{fill:#B7E4F8;}
	.st4{fill:#C5D3DD;}
	.st5{fill:#D3E1E6;}
	.st6{fill:#E8F0F3;}
</style>
<g id="Calque_1">
</g>
<g id="Calque_2">
	<g>
		<path class="st0" d="M499.59,431.31l-16.65,155.04l16.65,199.77c24-20.31,228.48-133.18,228.48-133.18l25.98-221.63H499.59z"/>
		<path class="st1" d="M499.59,684.54l-16.65,118.22L499.59,886h201.16l27.32-233.06H586.18
			C554.02,652.94,523.59,664.23,499.59,684.54z"/>
		<path class="st2" d="M280.86,736.17c0,0,212.11,55.54,218.73,49.94V431.31H245.13L280.86,736.17z"/>
		<path class="st3" d="M481.31,703.34c-16.69,20.86-41.59,32.83-68.31,32.83H280.86L298.42,886h201.16V684.54
			C492.97,690.14,486.85,696.42,481.31,703.34z"/>
		<path class="st2" d="M360.77,444.41v-46.82c22.43,0,41.89-15.2,47.33-36.95c3.67-14.68,0.43-29.93-8.88-41.85
			s-23.32-18.76-38.45-18.76h-69.97V253.2h69.97c29.65,0,57.11,13.4,75.36,36.77s24.59,53.26,17.4,82.02
			C442.86,414.64,404.72,444.41,360.77,444.41z"/>
		<path class="st4" d="M541.8,532.75l-89.36-65.82l263.27-357.42c18.18-24.67,52.91-29.94,77.59-11.77l0,0
			c24.67,18.18,29.94,52.91,11.77,77.59L541.8,532.75z"/>
		<g>
			<polygon class="st1" points="780.79,412.84 499.59,412.84 482.94,486.46 499.59,559.82 763.56,559.82 			"/>
			<polygon class="st3" points="218.39,412.84 235.62,559.82 499.59,559.82 499.59,412.84 			"/>
		</g>
		<g>
			<polygon class="st5" points="807.56,397.59 499.59,397.59 482.94,419.88 499.59,444.41 807.56,444.41 			"/>
			<rect x="191.61" y="397.59" class="st6" width="307.97" height="46.82"/>
		</g>
	</g>
</g>
</svg>
