<?xml version="1.0" encoding="utf-8"?>
<!-- Generator: Adobe Illustrator 23.0.2, SVG Export Plug-In . SVG Version: 6.00 Build 0)  -->
<svg version="1.1" id="Layer_1" xmlns="http://www.w3.org/2000/svg" xmlns:xlink="http://www.w3.org/1999/xlink" x="0px" y="0px"
	 viewBox="0 0 1000 1000" style="enable-background:new 0 0 1000 1000;" xml:space="preserve">
<style type="text/css">
	.st0{fill:#80BC93;}
	.st1{fill:#69AF81;}
	.st2{fill:#C8EA73;}
	.st3{fill:#B7E445;}
	.st4{fill:#5EA570;}
	.st5{fill:#528E61;}
	.st6{fill:#F9EFAF;}
	.st7{fill:#F6E781;}
	.st8{fill:#FFF9E2;}
	.st9{fill:#FBF4C6;}
</style>
<g>
	<g>
		<path class="st0" d="M368.6,873.96l-37.4-537.27c-2.67-38.3,17.28-72.66,48.12-90.52c-9.25-3.03-19.15-4.67-29.45-4.67h-94.96
			c-79.85,0-142.97,67.67-137.43,147.33l30.53,438.69c5.02,72.2,65.06,128.2,137.43,128.2h27.88c28.82,0,54.78-12.94,72.18-33.47
			C375.92,908.4,369.84,891.89,368.6,873.96L368.6,873.96z"/>
	</g>
	<g>
		<path class="st1" d="M379.32,246.17c-9.25-3.03-19.15-4.67-29.45-4.67h-78.99c-10.39,16.65-15.84,36.65-14.37,57.84l37.4,537.27
			c0.3,4.28,0.87,8.47,1.7,12.57c7.16,35.39-20,68.86-56.11,69.18c-0.29,0-0.57,0-0.86,0h-27.89c-7.25,0-14.38-0.56-21.35-1.65
			c24.89,24.19,58.83,38.99,96.04,38.99h27.88c28.82,0,54.78-12.93,72.18-33.47L379.32,246.17z"/>
	</g>
	<g>
		<path class="st2" d="M745.09,241.5h-94.96c-8.11,0-15.97,1.02-23.47,2.93c-3.84,0.98-7.88,0.57-11.44-1.19
			c-12.91-6.41-27.48-10.02-42.95-10.02h-4.6c-7.43,0-13.67-5.58-14.5-12.96c-6.09-54.19-17.78-107.61-34.88-159.39l-7.04-21.32
			c-0.7-2.11-2.67-3.54-4.9-3.54h-55.49c-3.06,0-5.45,2.66-5.13,5.7l1.22,11.55c6,56.84,5.81,114.16-0.57,170.96l-1.01,9.02L500,964
			h34.88c26.99,0,51.54-11.09,69.15-29.08c5.98-6.11,15.51-6.62,22.07-1.15c16.45,13.73,37.61,21.95,60.57,21.95h27.88
			c72.37,0,132.4-56,137.43-128.2l30.53-438.69C888.06,309.18,824.94,241.5,745.09,241.5L745.09,241.5z"/>
	</g>
	<g>
		<path class="st3" d="M766.43,243.15c27.96,27.2,44.34,66.08,41.4,108.34L777.3,790.17c-5.02,72.2-65.06,128.2-137.43,128.2h-27.88
			c-22.96,0-44.12-8.21-60.57-21.95c-6.56-5.48-16.09-4.96-22.07,1.15c-8.38,8.55-18.32,15.55-29.35,20.53l-16.41,25.61L500,964
			h34.88c26.99,0,51.54-11.09,69.15-29.09c5.98-6.11,15.51-6.62,22.07-1.15c16.45,13.73,37.61,21.95,60.57,21.95h27.88
			c72.37,0,132.4-56,137.43-128.2l30.53-438.68C887.56,316.42,835.86,253.92,766.43,243.15z"/>
	</g>
	<g>
		<path class="st4" d="M721.02,288.19H668.7c0,0-35.81,48.07-56.68,74.72c-21.65,27.65-65.34,79.36-65.34,79.36v391.32
			c0,4.4,3.5,7.96,7.9,8.13c61.93,2.37,87.87,32.37,97.09,47.55c6.94,11.44,18.96,18.98,32.32,19.7c0.88,0.05,1.78,0.07,2.7,0.07
			h27.88c47.64,0,87.55-37.23,90.86-84.76l28.86-414.67C838.85,343.96,786.83,288.19,721.02,288.19L721.02,288.19z"/>
	</g>
	<g>
		<path class="st5" d="M730.89,288.61c19.71,21.99,30.94,51.65,28.71,83.65l-28.86,414.67c-3.31,47.53-43.22,84.76-90.86,84.76
			h-2.65c6.91,6.45,11.52,12.75,14.44,17.57c6.94,11.44,18.96,18.98,32.32,19.7c0.88,0.05,1.78,0.07,2.7,0.07h27.88
			c47.64,0,87.55-37.23,90.86-84.76l28.86-414.67C838.62,347.27,791.94,293.85,730.89,288.61L730.89,288.61z"/>
	</g>
	<g>
		<path class="st5" d="M635.57,828.37c-0.33,0-0.66-0.01-0.99-0.03c-7.72-0.54-13.54-7.23-13-14.94l27.37-393.17
			c0.54-7.72,7.22-13.56,14.94-13c7.72,0.54,13.53,7.23,13,14.94l-27.37,393.17C649.01,822.72,642.86,828.37,635.57,828.37
			L635.57,828.37z"/>
	</g>
	<g>
		<path class="st6" d="M668.7,288.19h-18.57c-4.06,0-8.08,0.5-11.92,1.48c-5.12,1.31-10.4,1.97-15.68,1.97
			c-9.68,0-19.38-2.27-28.05-6.58c-6.9-3.42-14.37-5.16-22.2-5.16H500l-28.27,71.44L500,448.8
			C590.5,448.8,664.38,377.62,668.7,288.19z"/>
	</g>
	<g>
		<path class="st7" d="M650.13,288.19c-4.06,0-8.08,0.5-11.92,1.48c-5.12,1.31-10.4,1.97-15.68,1.97c-4.69,0-9.39-0.54-13.98-1.58
			C595.49,346.61,554.03,392.3,500,411.28v37.52c90.5,0,164.38-71.18,168.7-160.61L650.13,288.19L650.13,288.19z"/>
	</g>
	<path class="st8" d="M560.68,392.93c0,7.73-6.27,14-14,14c-7.73,0-14-6.27-14-14c0-7.73,6.27-14,14-14
		C554.41,378.92,560.68,385.19,560.68,392.93z M580.07,354.5c-7.73,0-14,6.27-14,14s6.27,14,14,14s14-6.27,14-14
		S587.8,354.5,580.07,354.5z M607.99,323.33c-7.73,0-14,6.27-14,14c0,7.73,6.27,14,14,14s14-6.27,14-14
		C621.99,329.6,615.72,323.33,607.99,323.33z"/>
	<g>
		<path class="st9" d="M546.68,406.93c7.73,0,14-6.27,14-14c0-5.32-2.97-9.95-7.34-12.32c-6.41,5.46-13.24,10.44-20.43,14.9
			C534.13,402.01,539.83,406.93,546.68,406.93z"/>
		<circle class="st9" cx="607.99" cy="337.34" r="14"/>
		<path class="st9" d="M580.07,382.51c7.73,0,14-6.27,14-14s-6.27-14-14-14c-0.69,0-1.37,0.05-2.03,0.15
			c-3.74,4.87-7.74,9.53-11.97,13.96C566.12,376.3,572.37,382.51,580.07,382.51z"/>
	</g>
	<g>
		<path class="st0" d="M427.72,233.22c-56.08,0-100.42,47.53-96.52,103.47l37.4,537.27c3.53,50.7,45.69,90.04,96.52,90.04H500
			V238.43c0-2.88-2.33-5.21-5.21-5.21L427.72,233.22z"/>
	</g>
	<g>
		<path class="st1" d="M494.79,233.22h-67.06c-0.81,0-1.61,0.01-2.41,0.03v658.52c0,19.27-15.62,34.88-34.88,34.88
			c-0.57,0-1.13-0.01-1.7-0.02C406.49,949.45,434.2,964,465.12,964H500V238.43C500,235.55,497.67,233.22,494.79,233.22
			L494.79,233.22z"/>
	</g>
</g>
</svg>
