<?xml version="1.0" encoding="utf-8"?>
<!-- Generator: Adobe Illustrator 23.0.2, SVG Export Plug-In . SVG Version: 6.00 Build 0)  -->
<svg version="1.1" id="Layer_1" xmlns="http://www.w3.org/2000/svg" xmlns:xlink="http://www.w3.org/1999/xlink" x="0px" y="0px"
	 viewBox="0 0 1000 1000" style="enable-background:new 0 0 1000 1000;" xml:space="preserve">
<style type="text/css">
	.st0{fill:#C991FF;}
	.st1{fill:#D3B3FF;}
	.st2{fill:#B173FF;}
	.st3{fill:#CD8E50;}
	.st4{fill:#DDA450;}
	.st5{fill:#BA8050;}
	.st6{fill:#FFB750;}
	.st7{fill:#FFE070;}
	.st8{fill:#EA8E50;}
	.st9{fill:#9F7050;}
</style>
<path class="st0" d="M660.69,322.33c-7.22-9.42-7.62-23.29-1.11-33.34c19.08-29.43,9.84-71.54-19.89-87.41
	c-9.21-4.91-14.46-15.97-13.58-27.36c2.72-35.18-23.16-66.09-55.67-63.63c-9.92,0.75-19.05-5.64-23.42-15.66
	C538.53,75.44,520.67,62,500,62c-20.67,0-38.53,13.44-47.02,32.95c-4.36,10.02-13.5,16.4-23.42,15.66
	c-29.32-2.21-52.93,22.66-55.6,52.52c-0.34,3.78-0.35,7.49-0.07,11.11c0.88,11.39-4.38,22.44-13.58,27.36
	c-29.74,15.87-38.97,57.98-19.89,87.41c6.51,10.05,6.11,23.92-1.11,33.34c-21.28,27.77-14.88,70.53,13.5,88.97
	c9.09,5.91,13.55,18.03,11.06,29.47c-7.76,35.73,15.36,69.7,46.74,72.38c6.24,0.53,12.27-0.16,17.91-1.89
	c10.28-3.15,21.22,1.91,26.75,12.12c9.18,16.92,25.77,28.22,44.72,28.22c18.95,0,35.55-11.3,44.72-28.22
	c5.54-10.21,16.47-15.27,26.75-12.12c5.65,1.73,11.68,2.42,17.91,1.89c31.38-2.68,54.5-36.64,46.74-72.38
	c-2.49-11.45,1.97-23.57,11.06-29.47C675.61,392.83,681.94,350.07,660.69,322.33L660.69,322.33z"/>
<path class="st1" d="M578.25,113.66c4.36,10.02,13.5,16.4,23.42,15.66c3.86-0.29,7.48-0.1,11.07,0.48
	c-8.66-10.7-20.76-17.83-34.24-19.11c-0.57-0.05-1.14-0.06-1.7-0.09C577.3,111.6,577.8,112.62,578.25,113.66z"/>
<path class="st1" d="M357.92,379.25c0-14.59,4.75-27.94,12.62-38.2c7.22-9.42,7.62-23.29,1.11-33.34
	c-19.08-29.43-9.84-71.54,19.89-87.41c9.2-4.91,14.46-15.97,13.58-27.36c-2.72-35.18,23.16-66.09,55.67-63.63
	c9.92,0.75,19.05-5.64,23.42-15.66c9.68-22.22,31.28-36.11,54.58-32.33C529.22,69.46,515.39,62,500,62
	c-20.67,0-38.53,13.44-47.02,32.95c-4.36,10.02-13.5,16.4-23.42,15.66c-29.32-2.21-52.93,22.66-55.6,52.52
	c-0.34,3.78-0.35,7.49-0.07,11.11c0.88,11.39-4.38,22.44-13.58,27.36c-29.74,15.87-38.97,57.98-19.89,87.41
	c6.51,10.05,6.11,23.92-1.11,33.34c-21.27,27.75-14.9,70.51,13.5,88.97C361.9,417.21,357.92,400.93,357.92,379.25L357.92,379.25z"/>
<path class="st2" d="M660.69,322.33c-7.22-9.42-7.62-23.29-1.11-33.34c19.08-29.43,9.84-71.54-19.89-87.41
	c-9.21-4.91-1.11,14.76-1.11,38.14c0,12.87-3.7,24.76-9.96,34.43c-6.51,10.05-6.11,23.92,1.11,33.34
	c21.27,27.75,14.9,70.51-13.5,88.97c-9.09,5.91-13.55,18.03-11.06,29.47c1.33,6.14,1.8,12.66,1.26,19.4
	c-2.92,35.84-34.38,60.74-65.91,51.09c-10.28-3.15-21.22,1.91-26.75,12.12c-9.74,17.97-27.99,29.78-48.67,28.04
	c24.19,24.36,62.47,18.46,79.64-13.21c5.54-10.21,16.47-15.27,26.75-12.12c31.69,9.7,63.01-15.46,65.91-51.09
	c0.55-6.73,0.08-13.25-1.26-19.4c-2.49-11.44,1.97-23.57,11.06-29.47C675.61,392.83,681.94,350.07,660.69,322.33L660.69,322.33z"/>
<path class="st3" d="M159.8,846.8c10.58,2.37,18.99,12.18,20.66,23.77c0.89,6.22,2.73,12.5,5.59,18.62
	c15.24,32.55,53.42,44.97,79.61,24.93c8.54-6.53,20.55-5.6,29.31,2.05c14.51,12.66,34,17.48,51.77,10.88
	c17.76-6.6,29.37-22.97,32.06-42.02c1.62-11.5,10.1-20.05,20.84-20.68c33.09-1.94,53.65-36.43,43.93-70.84
	c-1.84-6.5-4.56-12.45-7.95-17.74c-6.33-9.86-6.38-22.77,0.08-31.48c20.25-27.3,11.1-69.55-18.42-88.09
	c-10.06-6.32-15.27-19.17-12.68-30.86c7.58-34.11-15.62-70.46-49.16-74.99c-10.34-1.4-19.13-9.93-22.28-20.91
	c-9.82-34.24-45.02-53.77-74.39-40.25c-9.04,4.16-19.83,1.35-27.42-6.52c-14.77-15.32-36.2-21.7-55.57-14.5
	s-31.42,26.01-32.57,47.25c-0.59,10.91-6.92,20.07-16.48,22.83c-31.14,8.97-44.9,46.76-29.95,79.02c4.8,10.37,3.73,22.56-3.18,30.37
	c-22.4,25.31-16.2,67.97,11.88,88.85c9.61,7.15,14.08,20.28,10.6,31.63C105.85,801.5,126.69,839.38,159.8,846.8L159.8,846.8z"/>
<path class="st4" d="M435.62,775.76c-6.33-9.86-6.38-22.77,0.08-31.48c20.25-27.3,11.1-69.55-18.42-88.09
	c-10.06-6.32-15.27-19.17-12.68-30.86c7.58-34.11-15.62-70.46-49.16-74.99c-10.34-1.4-19.13-9.93-22.28-20.91
	c-9.75-33.98-44.83-53.85-74.39-40.25c-9.04,4.16-19.83,1.35-27.42-6.52c-25.43-26.38-65.19-22.3-81.61,8.79
	c16.65-2.52,33.78,4,46.21,16.89c7.59,7.87,18.38,10.67,27.42,6.52c29.54-13.58,64.61,6.17,74.39,40.25
	c3.15,10.98,11.94,19.51,22.28,20.91c33.54,4.54,56.74,40.89,49.16,74.99c-2.6,11.68,2.62,24.54,12.68,30.86
	c29.48,18.51,38.7,60.75,18.42,88.09c-6.46,8.7-6.4,21.62-0.08,31.48c12.03,18.76,13.97,42.99,3.68,62.45
	C441.45,858.24,458.54,811.49,435.62,775.76L435.62,775.76z"/>
<path class="st4" d="M105.31,551.41c-2.42,2.59-4.57,5.44-6.43,8.5C101.6,557.67,103.78,554.76,105.31,551.41z"/>
<path class="st5" d="M219.67,860.47c-1.67-11.59-10.08-21.4-20.66-23.77c-33.14-7.43-53.94-45.33-43.72-78.69
	c3.48-11.35-0.99-24.48-10.6-31.63c-28-20.83-34.34-63.47-11.88-88.85c6.91-7.81,7.98-20,3.18-30.37c-1.53-3.3-2.81-6.78-3.81-10.44
	c-7.39-26.95,12.19-102.56,11.04-81.31c-0.59,10.91-6.92,20.07-16.48,22.83c-31.2,8.99-44.88,46.81-29.95,79.02
	c4.8,10.37,3.73,22.56-3.18,30.37c-22.4,25.32-16.2,67.97,11.88,88.85c9.61,7.15,14.08,20.29,10.6,31.63
	c-10.23,33.38,10.61,71.27,43.72,78.69c10.58,2.37,18.99,12.18,20.66,23.77c0.89,6.22,2.73,12.5,5.59,18.62
	c15.24,32.55,53.42,44.97,79.61,24.93c0.58-0.44,1.18-0.84,1.78-1.22C243.49,908.53,223.54,887.37,219.67,860.47L219.67,860.47z"/>
<path class="st6" d="M883.92,768.11c-3.48-11.34,0.99-24.48,10.6-31.63c28-20.82,34.34-63.47,11.88-88.85
	c-6.91-7.81-7.98-20-3.18-30.37c14.83-32.02,1.36-70.01-29.95-79.02c-9.56-2.75-15.89-11.92-16.48-22.83
	c-1.15-21.24-13.2-40.06-32.57-47.25c-19.37-7.2-40.8-0.82-55.57,14.5c-7.59,7.87-18.38,10.67-27.42,6.52
	c-29.97-13.78-64.76,6.68-74.39,40.25c-3.15,10.98-11.94,19.51-22.28,20.91c-33.54,4.54-56.74,40.89-49.16,74.99
	c2.6,11.68-2.62,24.54-12.68,30.86c-29.48,18.51-38.7,60.75-18.42,88.09c6.46,8.7,6.4,21.62,0.08,31.48
	c-19.78,30.84-9.89,70.7,18.53,84.11c5.66,2.67,11.55,4.12,17.45,4.47c10.74,0.63,19.22,9.18,20.84,20.68
	c2.69,19.05,14.3,35.42,32.06,42.02c17.76,6.6,37.26,1.79,51.77-10.88c8.76-7.64,20.77-8.58,29.31-2.05
	c4.69,3.59,10.1,6.34,16.13,8.01c30.34,8.41,63.87-15.37,69.08-51.56c1.67-11.59,10.08-21.4,20.66-23.77
	C873.34,839.37,894.14,801.47,883.92,768.11L883.92,768.11z"/>
<path class="st7" d="M883.48,545.55c0.59,10.91,6.92,20.07,16.48,22.83c2.07,0.6,4.12,1.38,6.15,2.29
	c-4.11-12.03-12.05-22.21-22.91-28.27C883.32,543.44,883.42,544.49,883.48,545.55L883.48,545.55z"/>
<path class="st7" d="M584.25,717.74c5.09-13.67,14.21-24.53,25.16-31.41c10.06-6.32,15.27-19.17,12.68-30.86
	c-7.58-34.11,15.62-70.46,49.16-74.99c10.34-1.4,19.13-9.93,22.28-20.91c9.75-33.98,44.84-53.85,74.39-40.25
	c9.04,4.16,19.83,1.35,27.42-6.52c15.28-15.85,38.03-22.41,58.37-13.33c-4.87-14.3-15.17-25.98-29.49-31.3
	c-19.37-7.2-40.8-0.82-55.57,14.5c-7.59,7.87-18.38,10.67-27.42,6.52c-29.83-13.71-64.71,6.51-74.39,40.25
	c-3.15,10.98-11.94,19.51-22.28,20.91c-33.54,4.54-56.74,40.89-49.16,74.99c2.6,11.68-2.62,24.54-12.68,30.86
	c-29.48,18.51-38.7,60.75-18.42,88.09C570.75,752.99,576.67,738.06,584.25,717.74z"/>
<path class="st7" d="M647.89,915.15c-1.62-11.5-10.1-20.05-20.84-20.68c-1.27-0.08-2.55-0.21-3.82-0.39
	c4.33,14.09,13.83,25.82,27.22,31.8C649.28,922.44,648.41,918.85,647.89,915.15z"/>
<path class="st8" d="M906.4,647.64c-6.91-7.81-12.83,4.29-20.99,26.2c-4.49,12.06-12.11,21.92-21.36,28.8
	c-9.61,7.15-14.08,20.28-10.6,31.63c10.23,33.38-10.61,71.27-43.72,78.69c-10.58,2.37-18.99,12.18-20.66,23.77
	c-5.2,36.19-38.73,59.98-69.08,51.56c-6.03-1.67-11.44-4.42-16.13-8.01c-8.54-6.53-20.55-5.6-29.31,2.05
	c-14.45,12.61-33.86,17.43-51.56,10.94c10.77,37,52.53,48.65,82.03,22.9c8.76-7.64,20.77-8.58,29.31-2.05
	c26.31,20.13,64.45,7.45,79.61-24.93c2.86-6.12,4.7-12.4,5.59-18.62c1.67-11.59,10.08-21.4,20.66-23.77
	c33.14-7.43,53.94-45.33,43.72-78.69c-3.48-11.34,0.99-24.48,10.6-31.63C922.52,715.66,928.86,673.01,906.4,647.64L906.4,647.64z"/>
<path class="st2" d="M429.45,270.47c-4.97-5.92-4.2-14.75,1.72-19.72c4.67-3.92,7.59-9.08,8.02-14.15
	c0.43-5.05-1.6-10.28-6.05-15.54c-18.63-22.03-8.59-48.7-0.68-59.71c4.51-6.28,13.25-7.72,19.54-3.21
	c6.25,4.49,7.7,13.18,3.27,19.45c-1.07,1.55-9.7,14.8-0.74,25.39c11.74,13.88,13.31,27.24,12.56,36
	c-1.06,12.44-7.6,24.55-17.92,33.21C443.28,277.14,434.45,276.42,429.45,270.47z"/>
<path class="st2" d="M545.02,339.53c-4.97-5.92-4.2-14.75,1.72-19.72c4.67-3.91,7.59-9.07,8.02-14.15
	c0.43-5.05-1.6-10.28-6.05-15.54c-18.63-22.03-8.59-48.7-0.68-59.71c4.51-6.28,13.25-7.72,19.54-3.21
	c6.25,4.49,7.7,13.18,3.27,19.45c-1.07,1.55-9.7,14.8-0.74,25.39c11.74,13.89,13.31,27.24,12.56,36
	c-1.06,12.44-7.6,24.54-17.92,33.21C558.78,346.26,549.96,345.41,545.02,339.53L545.02,339.53z"/>
<path class="st9" d="M179.47,690.99c-6.59-4.05-8.64-12.68-4.59-19.26c3.19-5.18,4.33-10.99,3.14-15.94
	c-1.18-4.93-4.77-9.26-10.65-12.85c-24.63-15.04-23.53-43.5-19.5-56.45c2.3-7.38,10.14-11.5,17.53-9.21
	c7.35,2.29,11.47,10.07,9.24,17.43c-0.52,1.81-4.53,17.1,7.32,24.33c15.53,9.48,21.24,21.66,23.29,30.22
	c2.91,12.14,0.54,25.68-6.52,37.15C194.67,693.01,186.04,695.03,179.47,690.99z"/>
<path class="st9" d="M330.1,735.2c-6.59-4.05-8.64-12.68-4.59-19.26c3.19-5.18,4.33-10.99,3.14-15.94
	c-1.18-4.94-4.77-9.26-10.65-12.85c-24.63-15.04-23.53-43.5-19.5-56.45c2.3-7.39,10.14-11.5,17.53-9.21
	c7.35,2.29,11.47,10.07,9.24,17.43c-0.52,1.8-4.53,17.1,7.32,24.33c15.53,9.48,21.24,21.66,23.29,30.22
	c2.91,12.14,0.54,25.68-6.52,37.15C345.29,737.22,336.66,739.24,330.1,735.2z"/>
<path class="st9" d="M269.05,844.12c-6.59-4.05-8.64-12.68-4.59-19.26c3.19-5.18,4.33-10.99,3.14-15.94
	c-1.18-4.94-4.77-9.26-10.65-12.85c-24.63-15.04-23.53-43.5-19.5-56.45c2.3-7.38,10.14-11.5,17.53-9.21
	c7.35,2.29,11.47,10.07,9.24,17.42c-0.52,1.81-4.53,17.1,7.32,24.33c15.53,9.48,21.24,21.66,23.29,30.22
	c2.91,12.14,0.54,25.68-6.52,37.15C284.28,846.09,275.66,848.19,269.05,844.12L269.05,844.12z"/>
<g>
	<path class="st5" d="M798.7,694.84c-7.06-11.47-9.44-25.02-6.52-37.15c2.05-8.55,7.76-20.74,23.29-30.22
		c11.89-7.26,7.82-22.62,7.32-24.35c-2.3-7.38,1.85-15.17,9.23-17.47c7.38-2.29,15.25,1.89,17.54,9.27
		c4.03,12.95,5.13,41.41-19.5,56.45c-5.88,3.59-9.47,7.92-10.65,12.85c-1.19,4.95-0.04,10.76,3.14,15.94
		c4.05,6.59,2,15.21-4.59,19.26C811.35,703.5,802.73,701.39,798.7,694.84z"/>
	<path class="st5" d="M660.08,720.22c-7.06-11.47-9.44-25.01-6.52-37.15c2.05-8.55,7.76-20.74,23.29-30.22
		c3.22-1.97,7.58-5.59,8.23-14.26c0.4-5.33-0.87-9.93-0.88-9.97c-2.3-7.38,1.83-15.23,9.21-17.53c7.38-2.3,15.23,1.83,17.53,9.21
		c4.03,12.95,5.13,41.41-19.5,56.45c-5.88,3.59-9.47,7.91-10.65,12.85c-1.19,4.95-0.04,10.76,3.14,15.94
		c4.05,6.59,2,15.21-4.59,19.26C672.71,728.88,664.1,726.76,660.08,720.22L660.08,720.22z"/>
	<path class="st5" d="M709.12,847.97c-7.06-11.47-9.44-25.02-6.52-37.15c2.05-8.55,7.76-20.74,23.29-30.21
		c3.22-1.97,7.58-5.59,8.23-14.26c0.4-5.33-0.87-9.93-0.88-9.97c-2.3-7.38,1.83-15.23,9.21-17.53c7.38-2.3,15.23,1.83,17.53,9.21
		c4.03,12.95,5.13,41.41-19.5,56.45c-5.88,3.59-9.47,7.91-10.65,12.85c-1.19,4.95-0.04,10.76,3.14,15.94
		c4.05,6.59,2,15.21-4.59,19.26C721.77,856.63,713.16,854.52,709.12,847.97L709.12,847.97z"/>
</g>
<path class="st2" d="M461.98,447.19c-4.97-5.92-4.2-14.75,1.72-19.72c4.67-3.91,7.59-9.07,8.02-14.15
	c0.43-5.05-1.6-10.28-6.05-15.54c-18.63-22.03-8.59-48.7-0.68-59.71c4.51-6.28,13.25-7.72,19.54-3.21
	c6.25,4.49,7.7,13.18,3.27,19.45c-1.07,1.55-9.7,14.8-0.74,25.39c11.74,13.89,13.31,27.24,12.56,36
	c-1.06,12.44-7.6,24.55-17.92,33.21C475.75,453.9,466.92,453.08,461.98,447.19L461.98,447.19z"/>
</svg>
