<?xml version="1.0" encoding="utf-8"?>
<!-- Generator: Adobe Illustrator 23.0.6, SVG Export Plug-In . SVG Version: 6.00 Build 0)  -->
<svg version="1.1" id="Calque_1" xmlns="http://www.w3.org/2000/svg" xmlns:xlink="http://www.w3.org/1999/xlink" x="0px" y="0px"
	 viewBox="0 0 1500 1500" style="enable-background:new 0 0 1500 1500;" xml:space="preserve">
<style type="text/css">
	.st0{fill:#EFE8DA;}
	.st1{fill:#DD9362;}
</style>
<g>
	<path class="st0" d="M150.51,1470C84.06,1470,30,1415.94,30,1349.49V150.51C30,84.06,84.06,30,150.51,30h1198.98
		C1415.94,30,1470,84.06,1470,150.51v1198.98c0,66.45-54.06,120.51-120.51,120.51H150.51z"/>
	<path class="st1" d="M1349.49,60c49.91,0,90.51,40.6,90.51,90.51v1198.98c0,49.91-40.6,90.51-90.51,90.51H150.51
		c-49.91,0-90.51-40.6-90.51-90.51V150.51C60,100.6,100.6,60,150.51,60H1349.49 M1349.49,0H150.51C67.39,0,0,67.39,0,150.51v1198.98
		C0,1432.61,67.39,1500,150.51,1500h1198.98c83.12,0,150.51-67.39,150.51-150.51V150.51C1500,67.39,1432.61,0,1349.49,0L1349.49,0z"
		/>
</g>
</svg>
