<?xml version="1.0" encoding="utf-8"?>
<!-- Generator: Adobe Illustrator 23.0.6, SVG Export Plug-In . SVG Version: 6.00 Build 0)  -->
<svg version="1.1" xmlns="http://www.w3.org/2000/svg" xmlns:xlink="http://www.w3.org/1999/xlink" x="0px" y="0px"
	 viewBox="0 0 1000 1000" style="enable-background:new 0 0 1000 1000;" xml:space="preserve">
<style type="text/css">
	.st0{fill:#E5E5E5;}
	.st1{fill:#88B337;}
	.st2{fill:#6B962A;}
	.st3{fill:#DE4C3C;}
	.st4{fill:#FDB62F;}
	.st5{fill:#638724;}
	.st6{fill:#DEDEDE;}
</style>
<g id="Calque_1">
</g>
<g id="Calque_2">
	<path class="st0" d="M631.78,890.35h-249.5c-153.11,0-277.22-124.11-277.22-277.22H909C909,766.24,784.89,890.35,631.78,890.35z"/>
	<path class="st1" d="M740.31,225.03h-11.5l36.43-36.43c22.22-21.5,24.67-56.29,5.68-80.68c-20.61-25.12-57.69-28.75-82.79-8.14
		c-1.48,1.22-2.91,2.51-4.27,3.87l-38.21,38.21v-11.5c0.5-22.72-16.72-41.94-39.35-43.94c-22.93-1.23-42.52,16.36-43.76,39.3
		c-0.04,0.76-0.06,1.53-0.06,2.29v69.3c0.03-22.97-18.56-41.61-41.53-41.64c-0.76,0-1.53,0.01-2.29,0.06
		c-22.63,2.01-39.85,21.22-39.35,43.94v66.95c0.03-22.97-18.56-41.61-41.53-41.64c-0.76,0-1.53,0.01-2.29,0.06
		c-22.63,2-39.85,21.22-39.35,43.94v205.56h235.63c22.97,0,41.58-18.62,41.58-41.58l0,0c0-22.97-18.62-41.58-41.58-41.58h66.95
		c22.72,0.5,41.94-16.72,43.94-39.35c1.23-22.93-16.36-42.52-39.3-43.76c-0.76-0.04-1.53-0.06-2.29-0.06h41.58
		c22.97,0.03,41.61-18.56,41.64-41.53c0-0.76-0.01-1.53-0.06-2.29C782.26,241.75,763.03,224.53,740.31,225.03z"/>
	<g>
		<polygon class="st2" points="710.89,179.39 691.29,159.79 631.78,219.29 631.78,183.45 604.06,183.45 604.06,247.01 
			548.62,302.46 548.62,252.75 520.9,252.75 520.9,330.18 465.45,385.62 465.45,322.06 437.73,322.06 437.73,413.35 303.19,547.89 
			322.79,567.49 457.33,432.94 548.62,432.94 548.62,405.22 485.05,405.22 540.5,349.78 617.92,349.78 617.92,322.06 568.22,322.06 
			623.66,266.61 687.23,266.61 687.23,238.89 651.38,238.89 		"/>
		<path class="st2" d="M253.61,308.2c-38.26-0.04-69.26-31.05-69.3-69.3v-6.93l-12.14-9.11c-28.16-21.13-33.88-61.1-12.75-89.26
			s61.1-33.88,89.26-12.75l4.93,3.7l4.92-3.7c28.17-21.14,68.14-15.43,89.26,12.74c0.71,0.94,1.4,1.91,2.05,2.9l0,0
			c18.77,28.17,12.28,66.07-14.8,86.38l-12.13,9.11v6.93C322.87,277.15,291.86,308.16,253.61,308.2z M210.54,135.8
			c-2.08,0-4.14,0.18-6.2,0.54c-9.79,1.62-18.45,7.25-23.91,15.52c-10.62,15.9-6.97,37.33,8.32,48.82l17.67,13.27
			c3.49,2.62,5.54,6.72,5.54,11.09v13.86c0,22.97,18.62,41.58,41.58,41.58s41.58-18.62,41.58-41.58v-13.86
			c0-4.37,2.05-8.47,5.54-11.09l17.67-13.27c15.93-11.95,19.16-34.53,7.21-50.45s-34.53-19.16-50.45-7.21l-13.24,9.94
			c-4.93,3.7-11.7,3.7-16.63,0l-13.25-9.94C225.82,138.35,218.29,135.81,210.54,135.8z"/>
	</g>
	<g>
		<path class="st3" d="M839.7,266.61v-27.72c15.32,0,27.72-12.41,27.72-27.72s-12.41-27.72-27.72-27.72v-27.72
			c30.62,0,55.44,24.82,55.44,55.44S870.31,266.61,839.7,266.61z"/>
		<rect x="396.15" y="86.42" class="st3" width="27.72" height="27.72"/>
		<rect x="479.32" y="529.97" class="st3" width="27.72" height="27.72"/>
		<rect x="118.93" y="280.48" class="st3" width="27.72" height="27.72"/>
		<rect x="91.21" y="225.03" class="st3" width="27.72" height="27.72"/>
	</g>
	<path class="st4" d="M687.23,571.55h-27.72c0-15.32-12.41-27.72-27.72-27.72s-27.72,12.41-27.72,27.72h-27.72
		c0-30.62,24.82-55.44,55.44-55.44S687.23,540.93,687.23,571.55z"/>
	<path class="st1" d="M257.54,405.22h-13.86c0-22.97-18.62-41.58-41.58-41.58s-41.58,18.62-41.58,41.58h-13.86
		c-22.97,0-41.58,18.62-41.58,41.58c0,22.97,18.62,41.58,41.58,41.58h110.89c22.97,0,41.58-18.61,41.58-41.58
		C299.12,423.84,280.51,405.22,257.54,405.22z"/>
	<rect x="174.38" y="488.39" class="st5" width="55.44" height="55.44"/>
	<path class="st0" d="M825.83,391.36c-45.94,0-83.17,37.23-83.17,83.17s37.23,83.17,83.17,83.17S909,520.46,909,474.53
		S871.77,391.36,825.83,391.36z M825.83,516.11c-22.97,0-41.58-18.62-41.58-41.58c0-22.97,18.61-41.58,41.58-41.58
		c22.97,0,41.58,18.62,41.58,41.58C867.42,497.49,848.8,516.11,825.83,516.11z"/>
	<path class="st6" d="M717.36,613.13c-109.5,144.68-270.44,226.4-394.1,270.77c19.39,4.26,39.19,6.42,59.03,6.44h249.49
		C784.89,890.35,909,766.24,909,613.13H717.36z"/>
</g>
</svg>
