<?xml version="1.0" encoding="utf-8"?>
<!-- Generator: Adobe Illustrator 23.0.6, SVG Export Plug-In . SVG Version: 6.00 Build 0)  -->
<svg version="1.1" xmlns="http://www.w3.org/2000/svg" xmlns:xlink="http://www.w3.org/1999/xlink" x="0px" y="0px"
	 viewBox="0 0 1000 1000" style="enable-background:new 0 0 1000 1000;" xml:space="preserve">
<style type="text/css">
	.st0{fill:#F8E5B5;}
	.st1{fill:#D5A150;}
	.st2{fill:#ECCE93;}
	.st3{fill:#9BBC50;}
	.st4{fill:#FEDB6D;}
	.st5{fill:#E5BB51;}
</style>
<g id="Calque_1">
</g>
<g id="Calque_2">
	<path class="st0" d="M763.06,377.03c30.06-19.16,47.46-41.82,47.46-66.11c0-68.8-139.43-124.57-311.42-124.57
		s-311.42,55.77-311.42,124.57c0,24.29,17.4,46.95,47.46,66.11c-13.73,118.49-27.32,234.66-40.64,347.96
		c-4.03,34.29,19.02,66.22,54.08,74.8c164.33,40.2,336.69,40.2,501.03,0c35.06-8.58,58.12-40.51,54.08-74.8
		C790.38,611.69,776.79,495.52,763.06,377.03z"/>
	<path class="st1" d="M499.1,861c-86.79,0-173.54-10.32-257.91-30.96c-50.09-12.25-83.46-58.98-77.61-108.68
		c13.99-118.97,26.62-227.01,38.51-329.59c-37.17-29.24-45.54-59.52-45.54-80.85c0-46.87,39.34-88.42,110.79-117
		c62.41-24.96,144.72-38.71,231.77-38.71s169.36,13.75,231.77,38.71c71.44,28.58,110.79,70.13,110.79,117
		c0,21.33-8.37,51.61-45.54,80.85c11.9,102.58,24.52,210.63,38.51,329.59c5.84,49.71-27.52,96.43-77.61,108.68
		C672.66,850.68,585.87,861,499.1,861z M499.1,217.49c-79.32,0-153.41,12.17-208.64,34.26c-43.52,17.41-71.64,40.63-71.64,59.17
		c0,11.94,12.05,26.46,33.06,39.85c10.05,6.41,15.57,18,14.19,29.84c-12.52,108.07-25.82,221.91-40.65,348.02
		c-2.18,18.53,10.96,36.12,30.55,40.91c159.05,38.91,327.18,38.91,486.23,0c19.6-4.8,32.74-22.38,30.56-40.91
		c-14.83-126.11-28.13-239.94-40.65-348.02c-1.37-11.85,4.14-23.43,14.19-29.84c21.01-13.39,33.06-27.92,33.06-39.85
		c0-18.53-28.12-41.76-71.64-59.17C652.52,229.66,578.42,217.49,499.1,217.49z"/>
	<g>
		<circle class="st2" cx="334.99" cy="312.49" r="15.57"/>
		<circle class="st2" cx="459.55" cy="395.54" r="15.57"/>
		<circle class="st2" cx="334.99" cy="374.78" r="15.57"/>
		<circle class="st2" cx="334.99" cy="540.86" r="15.57"/>
		<circle class="st2" cx="438.79" cy="520.1" r="15.57"/>
		
			<ellipse transform="matrix(0.9239 -0.3827 0.3827 0.9239 -200.5737 197.9404)" class="st2" cx="397.27" cy="603.15" rx="15.57" ry="15.57"/>
		<circle class="st2" cx="293.46" cy="603.15" r="15.57"/>
		<circle class="st2" cx="480.31" cy="457.82" r="15.57"/>
		<circle class="st2" cx="667.17" cy="416.3" r="15.57"/>
		<circle class="st2" cx="667.17" cy="603.15" r="15.57"/>
		<circle class="st2" cx="584.12" cy="665.43" r="15.57"/>
		<circle class="st2" cx="667.17" cy="686.19" r="15.57"/>
		<circle class="st2" cx="667.17" cy="312.49" r="15.57"/>
		<circle class="st2" cx="729.45" cy="644.67" r="15.57"/>
		<circle class="st2" cx="563.36" cy="748.47" r="15.57"/>
		<circle class="st2" cx="334.99" cy="706.95" r="15.57"/>
	</g>
	<path class="st3" d="M668.34,443l1.71-6.2c16.02-58.24-13.44-119.36-68.98-143.11c-55.54-23.75-120.08-2.81-151.12,49.01l-3.3,5.52
		c-19.31,32.55-44.64,61.12-74.64,84.19c-24.57,18.74-43.85,43.54-55.95,71.97c-38.88,90.94,4.41,197.64,95.64,235.83
		c91.36,38.19,196.38-4.91,234.56-96.27c11.43-27.34,15.9-57.09,13.02-86.59C655.48,518.96,658.1,480.2,668.34,443L668.34,443z"/>
	<path class="st4" d="M427.01,700.89c-69.62-29.77-101.93-110.35-72.16-179.98c9.28-21.69,24-40.63,42.73-54.97
		c34.28-26.29,63.21-58.9,85.24-96.06l3.3-5.52c22.31-37.25,70.59-49.37,107.84-27.06c30.3,18.14,44.78,54.26,35.41,88.3l-1.71,6.2
		c-11.33,41.16-14.81,84.8-10.37,129.7c7.35,75.36-47.78,142.41-123.13,149.76c-22.55,2.2-45.29-1.22-66.2-9.96L427.01,700.89z"/>
	<path class="st5" d="M568.12,612.15c-20.6,48.19-76.37,70.55-124.56,49.95s-70.55-76.37-49.95-124.56
		c20.6-48.19,76.37-70.55,124.56-49.95c27.73,11.86,48.18,36.2,55.08,65.56C577.87,572.86,576.08,593.53,568.12,612.15z"/>
</g>
</svg>
