<?xml version="1.0" encoding="utf-8"?>
<!-- Generator: Adobe Illustrator 23.0.6, SVG Export Plug-In . SVG Version: 6.00 Build 0)  -->
<svg version="1.1" xmlns="http://www.w3.org/2000/svg" xmlns:xlink="http://www.w3.org/1999/xlink" x="0px" y="0px"
	 viewBox="0 0 1000 1000" style="enable-background:new 0 0 1000 1000;" xml:space="preserve">
<style type="text/css">
	.st0{fill:#C6C5CB;}
	.st1{fill:#E0E0E2;}
	.st2{fill:#DFEDF4;}
	.st3{fill:#7FA9DB;}
	.st4{fill:#FFFFFF;}
	.st5{fill:#FCFBFA;}
	.st6{fill:#D8D8DA;}
	.st7{fill:#92563A;}
	.st8{fill:#875036;}
	.st9{fill:#78462F;}
	.st10{fill:#FFB531;}
	.st11{fill:#4D5E78;}
	.st12{fill:#7EB457;}
</style>
<g id="Calque_1">
</g>
<g id="Calque_2">
	<g>
		<path class="st0" d="M654.97,767.7c1.04-25.3-15.14-50.82-48.58-70.13c-64.61-37.3-169.02-37.3-233.21,0.01
			c-31.99,18.59-47.94,42.94-47.91,67.3c0-0.08-0.01-0.16-0.01-0.23l-0.12,41.36c-0.07,24.6,16.17,49.24,48.68,68.01
			c64.61,37.3,169.02,37.3,233.2,0c31.89-18.54,47.86-42.79,47.93-67.08l0.12-41.36C655.07,766.29,655,766.99,654.97,767.7z"/>
		<path class="st0" d="M655.07,765.58l-0.12,41.36c-0.07,24.29-16.04,48.55-47.93,67.08c-64.18,37.3-168.59,37.31-233.2,0
			c-32.51-18.77-48.75-43.41-48.68-68.01l0.12-41.36c-0.07,24.6,16.17,49.24,48.68,68.01c64.61,37.3,169.02,37.3,233.2,0
			C639.03,814.13,655,789.87,655.07,765.58z"/>
	</g>
	<g>
		<path class="st1" d="M606.39,697.57c64.61,37.3,64.94,97.78,0.74,135.09c-64.18,37.3-168.59,37.3-233.2,0
			c-64.61-37.3-64.94-97.78-0.76-135.08C437.37,660.28,541.78,660.27,606.39,697.57z"/>
		<path class="st1" d="M948.71,406.87c0.91-67.42-42.19-135.14-129.72-187.47c-176.55-105.54-466.92-108.47-648.56-6.55
			C77.52,264.98,31.08,334.45,31.49,404.01c-0.01-0.44-0.02-0.92-0.03-1.35c0,0.51,0.02,1.02,0.03,1.54
			c0.01,1.03,0.03,2.05,0.05,3.08c0.02,0.84,0.04,1.69,0.08,2.53c-0.01-0.44-0.03-0.89-0.03-1.32c0.03,0.68,0.04,1.36,0.08,2.04
			c-0.01-0.24-0.03-0.47-0.04-0.71c0.28,10.62,0.78,22.81,1.41,32.43c0.46,7.09,1.58,16.52,2.55,23.56
			c0.97,7.07,2.32,16.49,3.77,23.48c2.54,12.24,6.28,28.5,9.52,40.57c1.88,6.99,4.84,16.17,7.18,23.01
			c2.37,6.93,5.63,16.16,8.5,22.89c4.93,11.56,11.86,26.81,17.4,38.09c3.35,6.83,8.42,15.63,12.21,22.23
			c3.92,6.8,9.41,15.73,13.88,22.19c7.28,10.51,17.43,24.22,25.27,34.31c5.21,6.7,12.79,15.11,18.49,21.39
			c4.34,4.79,10.36,10.96,14.95,15.5c6.63,6.56,15.84,14.94,22.84,21.1c4.93,4.34,11.69,9.93,16.92,13.92
			c8.62,6.56,20.29,15.08,29.27,21.14c7.34,4.96,17.45,11.08,25.09,15.56c9.8,5.74,23.34,12.54,33.52,17.58
			c5.92,2.93,14.03,6.37,20.12,8.94c8.18,3.46,19.31,7.56,27.7,10.48c6.99,2.43,16.4,5.42,23.55,7.34
			c12.29,3.3,28.86,7.02,41.32,9.61c6.41,1.33,15.06,2.54,21.54,3.43c6.13,0.85,14.33,1.88,20.51,2.3
			c12.21,0.82,28.51,1.77,40.75,1.83c6.14,0.03,14.33-0.17,20.47-0.44c6.14-0.27,14.3-0.94,20.43-1.35
			c6.47-0.44,15.04-1.66,21.48-2.42c11.21-1.32,34.67-5.76,44.44-8.33c8.43-2.21,19.73-4.95,28.02-7.66
			c12.62-4.12,29.26-10.2,41.62-15.06c8.85-3.48,20.26-9.04,28.81-13.22c6.19-3.03,14.26-7.43,20.28-10.79
			c9.67-5.41,29.2-16.95,51.28-33.54c7.49-5.63,17.2-13.51,24.3-19.62c6.58-5.66,15.19-13.41,21.26-19.6
			c9.11-9.29,20.9-22.02,29.46-31.81c5.24-6,11.71-14.42,16.48-20.79c4.63-6.17,10.65-14.52,14.79-21.03
			c6.8-10.7,15.57-25.17,21.66-36.29c3.54-6.46,7.88-15.29,11.01-21.97c3.09-6.59,7.08-15.44,9.68-22.23
			c4.48-11.7,10.01-27.47,13.86-39.39c2.19-6.78,4.56-16,6.26-22.92c6.04-24.62,8.48-43.51,8.5-43.69
			c0.86-7.03,2.27-16.39,2.79-23.45c0.46-6.26,1.17-14.61,1.47-20.88c0.3-6.3,0.53-14.71,0.53-21.01
			C948.75,405.77,948.72,406.32,948.71,406.87z"/>
	</g>
	<path class="st0" d="M282.94,750.47c-13.63-8.39-31.16-20.62-43.9-30.31c-8.88-6.75-20.24-16.46-28.08-24.4
		c-12.13-12.3-28.05-29.03-38.72-42.6c-10.67-13.57-23.74-32.64-32.24-47.66c-7.55-13.35-16.96-31.58-22.67-45.81
		c-6.97-17.37-14.71-41.17-19.51-59.25c-3.82-14.38-7.06-34.02-8.82-48.79c-1.73-14.57-2.54-34.16-2.8-48.83
		c0.17-60.86,41.09-121.55,122.38-167.17l0,0c159.96-89.76,415.68-87.17,571.16,5.77c76.46,45.71,114.45,104.76,114.28,163.65l0,0
		c-0.41,9.7-0.2,22.7-1.38,32.34c-2.31,18.98-5.28,44.45-10.23,62.92c-3.77,14.06-8.95,32.83-14.37,46.34
		c-3.44,8.59-8.04,20.05-11.99,28.42c-4.34,9.19-10.5,21.3-15.65,30.06c-9.03,15.35-22.38,35.08-33.33,49.14
		c-9.75,12.52-24.19,28.07-35.48,39.22c-9.29,9.17-22.36,20.76-32.83,28.56c-6.37,4.75-14.79,11.19-21.4,15.59
		c-8.73,5.8-20.58,13.22-29.7,18.38c-12.54,7.09-29.88,15.5-43.19,21c-7.24,2.99-17.01,6.66-24.41,9.21
		c-6.53,2.25-15.31,5.09-22.01,6.8c-5.79,1.48-13.45,3.67-19.3,4.85c-5.72,1.14-13.32,2.8-19.06,3.81c-5.73,1-13.4,2.12-19.16,2.87
		c-5.53,0.72-12.93,1.57-18.5,1.89c-5.4,0.31-12.6,0.83-18.01,1.02c-5.39,0.18-12.58,0.29-17.97,0.22
		c-10.82-0.15-25.22-1.13-36.01-1.97c-5.54-0.43-12.89-1.42-18.39-2.26c-5.65-0.86-13.17-2.1-18.78-3.2
		c-5.77-1.13-13.41-2.95-19.15-4.22c-5.89-1.3-13.59-3.65-19.39-5.29c-10.21-2.88-30.23-9.97-43.75-15.93
		c-6.53-2.88-15.2-6.8-21.54-10.05C301.07,760.72,290.54,755.15,282.94,750.47z"/>
	<path class="st2" d="M219.48,315.35c-153.76,86.28-157.25,228.66-7.79,318s395.27,91.83,549.04,5.55s157.25-228.66,7.79-318
		S373.25,229.07,219.48,315.35"/>
	<path class="st3" d="M246.85,342.72L246.85,342.72c153.76-86.28,399.58-83.8,549.04,5.55c16.12,9.64,30.46,19.9,43.02,30.63
		c-17.58-20.83-41.02-40.44-70.39-58c-149.46-89.35-395.27-91.83-549.04-5.55l0,0C82.31,392.32,64.74,513.94,168.67,602.72
		C96.8,517.58,123.31,412.04,246.85,342.72z"/>
	<g>
		<path class="st4" d="M214,403.67c-26.25,14.73-26.85,39.04-1.33,54.3c25.52,15.26,67.49,15.68,93.74,0.95s26.85-39.04,1.33-54.3
			C282.23,389.37,240.26,388.94,214,403.67"/>
		<path class="st4" d="M374.3,410.99c-15.67,8.79-16.02,23.3-0.79,32.4c15.23,9.1,40.27,9.36,55.94,0.57
			c15.67-8.79,16.02-23.3,0.79-32.4C415.01,402.45,389.96,402.2,374.3,410.99"/>
	</g>
	<path class="st5" d="M306.13,517.54c-11.57,6.49-11.84,17.21-0.59,23.93c11.25,6.72,29.75,6.91,41.32,0.42
		c11.57-6.49,11.84-17.21,0.59-23.93C336.21,511.23,317.7,511.04,306.13,517.54"/>
	<path class="st6" d="M715.41,803.44c-6.02,3.36-14.09,7.76-20.28,10.79c-8.54,4.18-19.96,9.74-28.81,13.22
		c-12.35,4.86-29,10.94-41.62,15.06c-8.28,2.7-19.59,5.44-28.02,7.66c-9.76,2.57-33.23,7.01-44.44,8.33
		c-6.44,0.76-15.01,1.98-21.48,2.42c-6.13,0.41-14.29,1.08-20.43,1.35c-6.14,0.27-14.33,0.47-20.47,0.44
		c-12.24-0.06-28.54-1.01-40.75-1.83c-6.18-0.42-14.38-1.45-20.51-2.3c-6.48-0.9-15.13-2.1-21.54-3.43
		c-12.46-2.59-29.03-6.31-41.32-9.61c-7.15-1.92-16.56-4.91-23.55-7.34c-8.39-2.92-19.52-7.02-27.7-10.48
		c-6.08-2.57-14.2-6.01-20.12-8.94c-10.18-5.03-23.72-11.83-33.52-17.58c-7.64-4.48-17.75-10.6-25.09-15.56
		c-8.98-6.06-20.65-14.58-29.27-21.14c-5.23-3.98-11.99-9.57-16.92-13.92c-7-6.17-16.21-14.54-22.84-21.1
		c-4.59-4.55-10.61-10.72-14.95-15.5c-5.7-6.28-13.28-14.7-18.49-21.39c-7.85-10.09-17.99-23.81-25.27-34.31
		c-4.47-6.45-9.97-15.38-13.88-22.19c-3.8-6.59-8.86-15.4-12.21-22.23c-5.54-11.28-12.47-26.54-17.4-38.09
		c-2.87-6.74-6.13-15.96-8.5-22.89c-2.34-6.84-5.3-16.03-7.18-23.01c-3.24-12.08-6.98-28.33-9.52-40.57
		c-1.45-6.99-2.8-16.41-3.77-23.48c-0.96-7.04-2.09-16.47-2.55-23.56c-0.77-11.85-1.36-27.69-1.57-39.57
		c-0.19,66.87,42.94,133.92,129.76,185.83c176.55,105.54,466.92,108.47,648.56,6.55c92.31-51.8,138.77-120.71,138.97-189.82
		c0,6.3-0.23,14.71-0.53,21.01c-0.3,6.27-1.01,14.62-1.47,20.88c-0.52,7.06-1.93,16.42-2.79,23.45c-0.02,0.18-2.46,19.07-8.5,43.69
		c-1.7,6.92-4.07,16.14-6.26,22.92c-3.85,11.92-9.38,27.69-13.86,39.39c-2.6,6.79-6.6,15.64-9.68,22.23
		c-3.13,6.68-7.47,15.5-11.01,21.97c-6.09,11.12-14.85,25.59-21.66,36.29c-4.14,6.51-10.16,14.86-14.79,21.03
		c-4.77,6.37-11.25,14.8-16.48,20.79c-8.56,9.8-20.35,22.53-29.46,31.81c-6.08,6.19-14.69,13.94-21.26,19.6
		c-7.1,6.11-16.81,13.99-24.3,19.62C744.61,786.49,725.08,798.04,715.41,803.44z"/>
	<path class="st1" d="M170.43,212.84c181.63-101.92,472-98.99,648.56,6.55s172.43,273.73-9.21,375.65s-472,98.99-648.56-6.55
		S-11.2,314.76,170.43,212.84z M208.58,235.64C48.62,325.4,44.99,473.52,200.47,566.46s411.2,95.53,571.16,5.77
		s163.59-237.87,8.11-330.82S368.54,145.88,208.58,235.64"/>
	<g id="Flat">
		<path class="st7" d="M374.97,536.83c0.48,30.41-29.74,55.37-67.52,55.76s-68.79-23.94-69.27-54.35c-0.01-0.47-0.01-0.94,0-1.41
			c0-38.99,22.8-75.7,61.55-99.1l6.84-4.13l6.84,4.13c16.77,10.12,30.79,22.89,41.21,37.53c1.44,2.02,2.81,4.08,4.11,6.17
			C369.4,498.63,374.97,517.6,374.97,536.83z"/>
		<path class="st8" d="M374.97,536.83c-0.05,30.41-30.71,55.03-68.48,54.99c-34.64-0.03-63.78-20.91-67.84-48.6
			c43.23-9.75,84.65-30.52,115.97-67.96c1.44,2.02,2.81,4.08,4.11,6.17C369.4,498.63,374.97,517.6,374.97,536.83z"/>
		<g>
			<path class="st9" d="M272.38,502.42L272.38,502.42c4.97,0,9,3.24,9,7.24v33.68c0,4-4.03,7.24-9,7.24l0,0c-4.97,0-9-3.24-9-7.24
				v-33.68C263.38,505.66,267.41,502.42,272.38,502.42z"/>
			<path class="st9" d="M306.57,468.01L306.57,468.01c4.97,0,9,3.24,9,7.24v88.74c0,4-4.03,7.24-9,7.24l0,0c-4.97,0-9-3.24-9-7.24
				v-88.74C297.57,471.25,301.6,468.01,306.57,468.01z"/>
			<path class="st9" d="M340.77,502.42L340.77,502.42c4.97,0,9,3.24,9,7.24v33.68c0,4-4.03,7.24-9,7.24l0,0c-4.97,0-9-3.24-9-7.24
				v-33.68C331.77,505.66,335.8,502.42,340.77,502.42z"/>
		</g>
		<path class="st7" d="M817.17,444.39c0,32.85-16.22,64.35-45.08,87.58c-26.72,21.5-70.02,21.49-96.73-0.01
			c-8.01-6.45-13.9-14.4-17.15-23.13c-1.9-5.12-2.87-10.43-2.87-15.78c0-14.6,7.21-28.6,20.04-38.93
			c34.25-27.57,82.63-40.56,130.58-35.04l8.46,0.97l1.2,6.81c0.63,3.57,1.07,7.13,1.32,10.69
			C817.09,439.83,817.17,442.11,817.17,444.39L817.17,444.39z"/>
		<path class="st8" d="M817.17,444.39c0,32.85-16.22,64.35-45.08,87.58c-26.72,21.5-70.02,21.49-96.73-0.01
			c-8.01-6.45-13.9-14.4-17.15-23.13c56.61-10.97,111.86-33.12,158.72-71.27C817.09,439.83,817.17,442.11,817.17,444.39
			L817.17,444.39z"/>
		<path class="st9" d="M687.38,473.04l29.58-23.81c3.51-2.83,9.21-2.83,12.73,0l0,0c3.51,2.83,3.51,7.42,0,10.24l-29.58,23.81
			c-3.51,2.83-9.21,2.83-12.73,0l0,0C683.87,480.46,683.87,475.87,687.38,473.04z"/>
		<path class="st9" d="M693.42,507.1l77.94-62.74c3.51-2.83,9.21-2.83,12.73,0l0,0c3.51,2.83,3.51,7.42,0,10.24l-77.94,62.74
			c-3.51,2.83-9.21,2.83-12.73,0l0,0C689.91,514.52,689.91,509.93,693.42,507.1z"/>
		<path class="st9" d="M735.73,511.97l29.58-23.81c3.51-2.83,9.21-2.83,12.73,0l0,0c3.51,2.83,3.51,7.42,0,10.24l-29.58,23.81
			c-3.51,2.83-9.21,2.83-12.73,0l0,0C732.22,519.38,732.22,514.8,735.73,511.97z"/>
		<path class="st7" d="M722,365.88c0,14.6-7.21,28.6-20.04,38.93c-34.25,27.57-82.63,40.55-130.58,35.04l-8.46-0.97l-1.2-6.81
			c-1.03-5.81-1.55-11.67-1.55-17.53c0-1.09,0.02-2.16,0.06-3.24c1.03-31.72,17.15-61.9,45.02-84.34
			c25.99-20.93,67.88-21.57,94.85-1.46c0.63,0.48,1.26,0.97,1.87,1.46C714.79,337.27,722,351.28,722,365.88L722,365.88z"/>
		<path class="st8" d="M722,365.88c0,14.6-7.21,28.6-20.04,38.93c-34.25,27.57-82.63,40.55-130.58,35.04l-8.46-0.97l-1.2-6.81
			c-1.03-5.81-1.55-11.67-1.55-17.53c0-1.09,0.02-2.16,0.06-3.24c51.41-16.46,99.91-43.77,139.87-85.79
			c0.63,0.48,1.26,0.97,1.87,1.46C714.79,337.27,722,351.28,722,365.88L722,365.88z"/>
		<path class="st9" d="M647.48,399.43l29.58-23.81c3.51-2.83,9.21-2.83,12.73,0l0,0c3.51,2.83,3.51,7.42,0,10.24l-29.58,23.81
			c-3.51,2.83-9.21,2.83-12.73,0l0,0C643.97,406.85,643.97,402.26,647.48,399.43z"/>
		<path class="st9" d="M593.08,404.3l77.94-62.74c3.51-2.83,9.21-2.83,12.73,0l0,0c3.51,2.83,3.51,7.42,0,10.24l-77.94,62.74
			c-3.51,2.83-9.21,2.83-12.73,0l0,0C589.57,411.71,589.57,407.13,593.08,404.3z"/>
		<path class="st9" d="M599.13,360.51l29.58-23.81c3.51-2.83,9.21-2.83,12.73,0l0,0c3.51,2.83,3.51,7.42,0,10.24l-29.58,23.81
			c-3.51,2.83-9.21,2.83-12.73,0l0,0C595.61,367.92,595.61,363.34,599.13,360.51z"/>
		<path class="st10" d="M399.43,345.97c22.12,7.91,47.36,7.91,69.48,0c16.6-5.94,36.04,0.08,43.42,13.44
			c1.87,3.39,2.84,7.05,2.84,10.75c0,10.46-7.66,19.95-19.54,24.2c-39.13,14-83.79,14-122.92,0c-11.88-4.25-19.54-13.73-19.54-24.2
			c0-14.62,14.73-26.48,32.9-26.48C390.68,343.69,395.23,344.47,399.43,345.97z"/>
		<path class="st10" d="M282.93,326.84c-21.29,9.27-36.7,25.36-42.42,44.3c-4.29,14.21-22.08,22.93-39.74,19.48
			c-4.47-0.88-8.67-2.5-12.32-4.76c-10.3-6.39-14.95-17.06-11.88-27.23c10.12-33.49,37.39-61.97,75.05-78.36
			c11.44-4.98,25.44-4.07,35.74,2.32c14.39,8.93,17.05,25.56,5.96,37.14C290.52,322.66,286.97,325.08,282.93,326.84z"/>
		<path class="st10" d="M525.43,556.04c22.12,7.91,47.36,7.91,69.48,0c16.6-5.94,36.04,0.08,43.42,13.44
			c1.87,3.39,2.84,7.05,2.84,10.75c0,10.46-7.66,19.95-19.54,24.2c-39.13,14-83.79,14-122.92,0c-11.88-4.25-19.54-13.73-19.54-24.2
			c0-14.62,14.73-26.48,32.9-26.48C516.68,553.76,521.23,554.54,525.43,556.04L525.43,556.04z"/>
		<path class="st7" d="M390.62,334.25c-16.26,0-29.44-10.61-29.44-23.7v-30.47c0-14.96,15.06-27.08,33.65-27.08l25.23,27.08v30.47
			C420.06,323.64,406.88,334.25,390.62,334.25C390.62,334.25,390.62,334.25,390.62,334.25z"/>
		<path class="st7" d="M577.43,532.65c-11.5,9.26-30.14,9.26-41.64,0l-26.77-21.54c-13.14-10.58-13.14-27.72,0-38.3c0,0,0,0,0,0
			l41.64,4.79l26.77,21.55C588.93,508.39,588.93,523.4,577.43,532.65L577.43,532.65z"/>
		<path class="st11" d="M476.41,268.64l19.09-15.37c7.03-5.66,18.42-5.66,25.45,0l0,0c7.03,5.66,7.03,14.83,0,20.49l-19.09,15.37
			c-7.03,5.66-18.42,5.66-25.45,0l0,0C469.38,283.47,469.38,274.29,476.41,268.64z"/>
		<path class="st11" d="M416.18,433.85h27c9.94,0,18,6.49,18,14.49l0,0c0,8-8.06,14.49-18,14.49h-27c-9.94,0-18-6.49-18-14.49l0,0
			C398.18,440.33,406.24,433.85,416.18,433.85z"/>
		<path class="st11" d="M606.19,250.4l22.41,12.13c8.25,4.47,10.44,13.47,4.9,20.11l0,0c-5.55,6.64-16.73,8.41-24.98,3.94
			l-22.41-12.13c-8.25-4.47-10.44-13.47-4.9-20.11l0,0C586.75,247.7,597.94,245.94,606.19,250.4z"/>
		<path class="st12" d="M448,532.34v21.73c0,8-8.06,14.49-18,14.49l0,0c-9.94,0-18-6.49-18-14.49v-21.73c0-8,8.06-14.49,18-14.49
			l0,0C439.94,517.85,448,524.33,448,532.34z"/>
		<path class="st12" d="M176,492.09v-21.73c0-8,8.06-14.49,18-14.49l0,0c9.94,0,18,6.49,18,14.49v21.73c0,8-8.06,14.49-18,14.49l0,0
			C184.06,506.58,176,500.09,176,492.09z"/>
		<path class="st12" d="M520.4,308.59l19.09-15.37c7.03-5.66,18.42-5.66,25.45,0l0,0c7.03,5.66,7.03,14.83,0,20.49l-19.09,15.37
			c-7.03,5.66-18.42,5.66-25.45,0l0,0C513.37,323.42,513.37,314.25,520.4,308.59z"/>
	</g>
</g>
</svg>
