<?xml version="1.0" encoding="utf-8"?>
<!-- Generator: Adobe Illustrator 23.0.6, SVG Export Plug-In . SVG Version: 6.00 Build 0)  -->
<svg version="1.1" xmlns="http://www.w3.org/2000/svg" xmlns:xlink="http://www.w3.org/1999/xlink" x="0px" y="0px"
	 viewBox="0 0 1000 1000" style="enable-background:new 0 0 1000 1000;" xml:space="preserve">
<style type="text/css">
	.st0{fill:#7A432A;}
	.st1{fill:#6E3C26;}
	.st2{fill:#92563A;}
	.st3{fill:#FFB531;}
	.st4{fill:#F35244;}
	.st5{fill:#FC685B;}
	.st6{fill:#E64C3F;}
	.st7{fill:#FFA912;}
	.st8{fill:#F2DEC2;}
</style>
<g id="Calque_1">
</g>
<g id="Calque_2">
	<g id="Flat">
		<path class="st0" d="M85.81,640.69L634.5,92l267.31,267.31L353.12,908L85.81,640.69z"/>
		<path class="st1" d="M901.97,359.29L353.19,908.06L181.11,735.97c268.12-86.64,456.17-198.23,658.05-439.49L901.97,359.29z"/>
		<g>
			<path class="st2" d="M564.19,246.76l70.35-70.35l70.35,70.35l-70.35,70.35L564.19,246.76z"/>
			<path class="st2" d="M676.73,359.33l70.35-70.35l70.35,70.35l-70.35,70.35L676.73,359.33z"/>
			<path class="st2" d="M451.62,359.31l70.35-70.35l70.35,70.35l-70.35,70.35L451.62,359.31z"/>
			<path class="st2" d="M564.16,471.87l70.35-70.35l70.35,70.35l-70.35,70.35L564.16,471.87z"/>
			<path class="st2" d="M339.05,471.85l70.35-70.35l70.35,70.35L409.4,542.2L339.05,471.85z"/>
		</g>
		<path class="st3" d="M85.77,640.67l56.28-56.28l267.31,267.31l-56.28,56.28L85.77,640.67z"/>
		<path class="st4" d="M719.04,542.21L409.48,851.78L142.13,584.43l154.78-154.78l320.61,85.5L719.04,542.21z"/>
		<path class="st5" d="M202.45,588.53l56.28-56.28l19.9,19.9l-56.28,56.28L202.45,588.53z"/>
		<path class="st5" d="M278.53,512.48l22.42-22.42l19.9,19.9l-22.42,22.42L278.53,512.48z"/>
		<path class="st6" d="M719.04,542.21L409.48,851.78l-144.7-144.7c132.36-48.93,245.4-107.85,352.74-191.93L719.04,542.21z"/>
		<path class="st7" d="M409.48,851.78l-56.28,56.28L181.11,735.97c28.78-9.3,56.67-18.94,83.67-28.9L409.48,851.78z"/>
		<path class="st8" d="M296.91,429.64l225.14,182.92l196.99-70.36L296.91,429.64z"/>
	</g>
</g>
</svg>
