<?xml version="1.0" encoding="utf-8"?>
<!-- Generator: Adobe Illustrator 23.0.6, SVG Export Plug-In . SVG Version: 6.00 Build 0)  -->
<svg version="1.1" xmlns="http://www.w3.org/2000/svg" xmlns:xlink="http://www.w3.org/1999/xlink" x="0px" y="0px"
	 viewBox="0 0 1000 1000" style="enable-background:new 0 0 1000 1000;" xml:space="preserve">
<style type="text/css">
	.st0{fill:#7EB457;}
	.st1{fill:#88C25E;}
	.st2{fill:#77AD50;}
	.st3{fill:#5F9548;}
	.st4{fill:#568741;}
</style>
<g id="Calque_1">
</g>
<g id="Calque_2">
	<path class="st0" d="M548.55,630.18l-36.71,73.79c-5.79,11.64-19.93,16.39-31.57,10.59l-21.08-10.49l47.2-94.87l-105.41-52.44
		l-41.96,84.33l-21.08-10.49c-11.64-5.79-16.39-19.93-10.59-31.57l31.47-63.25l-42.17-20.98l-31.47,63.25
		c-17.38,34.93-3.15,77.33,31.78,94.71l21.08,10.49l-41.96,84.33l105.41,52.44l36.71-73.79l21.08,10.49
		c34.93,17.38,77.33,3.15,94.71-31.78l36.71-73.79L548.55,630.18z"/>
	<path class="st1" d="M343.29,672.71l42.17,20.98l-10.49,21.08l-42.17-20.98L343.29,672.71z"/>
	<path class="st1" d="M422.27,672.55l42.17,20.98l-10.49,21.08l-42.17-20.98L422.27,672.55z"/>
	<path class="st1" d="M385.56,746.34l42.17,20.98l-10.49,21.08l-42.17-20.98L385.56,746.34z"/>
	<path class="st2" d="M474.58,673.14l31.81-63.94l-105.41-52.44l-31.81,63.94C396.54,650.7,434.13,669.4,474.58,673.14z"/>
	<path class="st2" d="M548.55,630.18l-19.33,38.85c2.23-0.55,4.44-1,6.7-1.61c6.66,14.67,15.77,28.1,26.95,39.71l27.84-55.96
		L548.55,630.18z"/>
	<path class="st2" d="M339.48,574.62l19.33-38.85l-42.17-20.98l-27.84,55.95c16,1.91,32.2,1.08,47.92-2.46
		C337.6,570.47,338.58,572.51,339.48,574.62z"/>
	<path class="st3" d="M798.3,519.19c27.1-35.03,34.36-81.5,19.23-123.13c-15.13-41.63-50.54-72.59-93.81-82.04
		c6.72-54.44-21.64-107.19-70.75-131.63c-49.11-24.43-108.29-15.23-147.67,22.96c-33.67-28.7-79.68-38.2-121.96-25.17
		s-74.98,46.76-86.66,89.44c-51.22,7.31-94.33,42.04-112.38,90.52c-18.05,48.48-8.14,102.95,25.83,141.97
		c33.97,39.01,86.56,56.34,137.06,45.13c30.46,79.89,117.14,123.02,199.23,99.12c21.53,47.04,67.06,78.54,118.67,82.1
		c51.61,3.56,101.03-21.39,128.82-65.03c27.78-43.63,29.48-98.98,4.41-144.23L798.3,519.19z"/>
	<path class="st4" d="M798.3,519.19c32.47-42.16,35.74-99.93,8.25-145.49c-185.39,211.92-523.17,108.54-627.19,69.73
		c18.31,74.56,92.96,120.72,167.84,103.79c30.46,79.89,117.14,123.02,199.23,99.12c21.53,47.04,67.06,78.54,118.67,82.1
		c51.61,3.56,101.03-21.39,128.82-65.03c27.78-43.63,29.48-98.98,4.41-144.23L798.3,519.19z"/>
	<g>
		<path class="st0" d="M616.21,229.87l21.08,10.49l-10.49,21.08l-21.08-10.49L616.21,229.87z"/>
		<path class="st0" d="M542.52,245.81l21.08,10.49l-10.49,21.08l-21.08-10.49L542.52,245.81z"/>
		<path class="st0" d="M437.16,219.69l21.08,10.49l-10.49,21.08l-21.08-10.49L437.16,219.69z"/>
		<path class="st0" d="M374.02,240.88l21.08,10.49l-10.49,21.08l-21.08-10.49L374.02,240.88z"/>
		<path class="st0" d="M574.25,314.2l21.08,10.49l-10.49,21.08l-21.08-10.49L574.25,314.2z"/>
		<path class="st0" d="M300.49,335.81l21.08,10.49l-10.49,21.08L290,356.89L300.49,335.81z"/>
		<path class="st0" d="M237.35,356.99l21.08,10.49l-10.49,21.08l-21.08-10.49L237.35,356.99z"/>
		<path class="st0" d="M253.29,430.68l21.08,10.49l-10.49,21.08l-21.08-10.49L253.29,430.68z"/>
		<path class="st0" d="M727.07,377.08l21.08,10.49l-10.49,21.08l-21.08-10.49L727.07,377.08z"/>
		<path class="st0" d="M663.93,398.27l21.08,10.49l-10.49,21.08l-21.08-10.49L663.93,398.27z"/>
		<path class="st0" d="M679.93,498.28l21.08,10.49l-10.49,21.08l-21.08-10.49L679.93,498.28z"/>
		<path class="st0" d="M616.78,519.47l21.08,10.49l-10.49,21.08l-21.08-10.49L616.78,519.47z"/>
		<path class="st0" d="M732.69,550.83l21.08,10.49l-10.49,21.08l-21.08-10.49L732.69,550.83z"/>
		<path class="st0" d="M400.77,451.45l21.08,10.49l-10.49,21.08l-21.08-10.49L400.77,451.45z"/>
		<path class="st0" d="M427.25,530.37l21.08,10.49l-10.49,21.08l-21.08-10.49L427.25,530.37z"/>
		<path class="st0" d="M669.65,624.67l21.08,10.49l-10.49,21.08l-21.08-10.49L669.65,624.67z"/>
	</g>
</g>
</svg>
