<?xml version="1.0" encoding="utf-8"?>
<!-- Generator: Adobe Illustrator 23.0.6, SVG Export Plug-In . SVG Version: 6.00 Build 0)  -->
<svg version="1.1" xmlns="http://www.w3.org/2000/svg" xmlns:xlink="http://www.w3.org/1999/xlink" x="0px" y="0px"
	 viewBox="0 0 1000 1000" style="enable-background:new 0 0 1000 1000;" xml:space="preserve">
<style type="text/css">
	.st0{fill:#EB922A;}
	.st1{fill:#F09E3E;}
	.st2{fill:#FFB433;}
	.st3{fill:#F0DBC2;}
</style>
<g id="Calque_1">
</g>
<g id="Calque_2">
	<path class="st0" d="M537.7,736.14c6.75-12.68,12.19-26.02,16.25-39.8l109.72-269.32c7.66-18.8,3.31-40.35-11.05-54.7l-40.91-40.91
		c-14.35-14.37-35.92-18.74-54.73-11.07L287.66,430.05c-13.78,4.05-27.12,9.48-39.8,16.21l-0.35,0.18
		c-81.08,43.25-125.59,133.35-110.65,224.02c14.94,90.67,86,161.73,176.68,176.68c90.67,14.94,180.78-29.56,224.02-110.65
		L537.7,736.14z"/>
	<path class="st1" d="M611.69,331.4c-14.35-14.36-35.91-18.73-54.71-11.07L287.66,430.05c-13.78,4.05-27.12,9.48-39.8,16.21
		l-0.35,0.18c-27.17,14.58-50.91,34.83-69.59,59.37l28.64,30.58c49.06,52.42,124.16,71.47,192.28,48.77
		c48.07-16.01,100.6-11.55,145.28,12.36c22.22,11.89,41.06,22.04,41.06,22.04l78.49-192.55c7.66-18.8,3.31-40.35-11.05-54.7
		L611.69,331.4z"/>
	<g>
		<path class="st2" d="M285.34,471.66h25.22v25.22h-25.22V471.66z"/>
		<path class="st2" d="M398.84,509.49h25.22v25.22h-25.22V509.49z"/>
		<path class="st2" d="M562.78,484.27h25.22v25.22h-25.22V484.27z"/>
		<path class="st2" d="M512.34,383.38h25.22v25.22h-25.22V383.38z"/>
	</g>
	<path class="st3" d="M844.01,192.65c-6.37-5.22-13.92-8.79-21.99-10.43c-10.34-1.74-18.44-9.83-20.18-20.17
		c-1.65-8.1-5.25-15.67-10.49-22.06c-9.27-13.04-24.13-20.97-40.12-21.44c-17.28,0.24-33.23,9.32-42.28,24.05
		c-9.04,14.73-9.91,33.06-2.31,48.58c4.4,9.8,2.16,21.32-5.62,28.74L600.62,320.33l63.05,63.05l100.41-100.41
		c7.43-7.77,18.94-10.02,28.74-5.62c15.52,7.6,33.86,6.73,48.58-2.32c14.73-9.05,23.8-25.01,24.04-42.28
		C864.98,216.77,857.04,201.93,844.01,192.65z"/>
</g>
</svg>
