<?xml version="1.0" encoding="utf-8"?>
<!-- Generator: Adobe Illustrator 23.0.6, SVG Export Plug-In . SVG Version: 6.00 Build 0)  -->
<svg version="1.1" xmlns="http://www.w3.org/2000/svg" xmlns:xlink="http://www.w3.org/1999/xlink" x="0px" y="0px"
	 viewBox="0 0 1000 1000" style="enable-background:new 0 0 1000 1000;" xml:space="preserve">
<style type="text/css">
	.st0{fill:#809E39;}
	.st1{fill:#85A33E;}
	.st2{fill:#8BAB43;}
	.st3{fill:#94B54A;}
	.st4{fill:#9BBC50;}
	.st5{fill:#A4C45A;}
</style>
<g id="Calque_1">
</g>
<g id="Calque_2">
	<g id="Flat">
		<path class="st0" d="M860.36,306.89c-6.1-6.11-13.27-11.05-21.16-14.57c-14.58-6.49-23.68-21.64-21.35-37.43
			c3.32-22.13-4.07-44.53-19.91-60.34c-15.81-15.84-38.21-23.23-60.34-19.91c-15.79,2.34-30.94-6.76-37.43-21.35
			c-3.52-7.89-8.45-15.06-14.57-21.16c-27.57-27.57-72.28-27.58-99.85,0c0,0,0,0,0,0L435.97,281.92l274.6,274.6l149.78-149.78
			C887.94,379.17,887.94,334.46,860.36,306.89C860.36,306.89,860.36,306.89,860.36,306.89z"/>
		<path class="st1" d="M711.49,293.72c-7.02,0-12.72-5.69-12.72-12.72c0-3.37,1.34-6.61,3.72-8.99l55.1-55.1
			c4.97-4.97,13.02-4.97,17.98,0c4.97,4.97,4.97,13.02,0,17.98l-55.1,55.1C718.1,292.39,714.87,293.73,711.49,293.72z"/>
		<path class="st1" d="M639.43,244.45c-7.02,0-12.72-5.69-12.72-12.72v-82.13c0-7.02,5.69-12.72,12.72-12.72
			c7.02,0,12.72,5.69,12.72,12.72v82.13C652.15,238.76,646.46,244.45,639.43,244.45z"/>
		<path class="st1" d="M842.89,365.78h-73.65c-7.02,0-12.72-5.69-12.72-12.72s5.69-12.72,12.72-12.72h73.65
			c7.02,0,12.72,5.69,12.72,12.72S849.92,365.78,842.89,365.78z"/>
		<path class="st2" d="M853.8,506.57c0.03,33.03-4.72,65.88-14.1,97.55v0.02c-4.85,16.33-10.91,32.28-18.15,47.7v0.02
			C765.25,772.26,644.29,849.15,511.37,849c-9.79,0-19.48-0.41-29.07-1.22C306.76,833.03,168.93,685.9,168.93,506.57
			c0-179.68,138.37-327.03,314.39-341.29c9.24-0.76,18.58-1.14,28.04-1.14c89.56-0.12,175.58,34.96,239.51,97.69
			c6.07,5.94,11.91,12.1,17.5,18.45c18.57,21.06,34.48,44.33,47.38,69.27c4.13,8.01,7.98,16.2,11.48,24.56
			c11.2,26.65,18.94,54.63,23.05,83.24c1.59,10.98,2.64,22.13,3.15,33.43C853.67,496.01,853.79,501.27,853.8,506.57L853.8,506.57z"
			/>
		<path class="st3" d="M737.33,616.31l116.1-125.52c-0.51-11.29-1.56-22.43-3.15-33.43c-0.84,0.56-1.61,1.23-2.29,1.97l-43.31,46.02
			l3.72-38.2c0.68-6.99-4.44-13.21-11.44-13.88c-6.99-0.68-13.21,4.44-13.88,11.44l0,0l-6.98,71.77l-35.99,39.21
			c1.97-37.58,1.71-75.24-0.78-112.78l87.9-88.78c-3.5-8.36-7.34-16.55-11.48-24.56l-79.39,80.18c-3.6-33.5-9.68-66.69-18.18-99.29
			l50.19-50.16c-5.6-6.36-11.43-12.51-17.5-18.45l-40.8,40.77c-11.18-35.64-26.35-69.9-45.21-102.13c0,0,8.67,35.05,16.08,91.93
			l-227.53-91.02c-6.52-2.61-13.92,0.56-16.53,7.08c-2.61,6.52,0.56,13.92,7.08,16.53l96.06,38.42l-39.57,7.19
			c-6.91,1.26-11.49,7.88-10.24,14.79s7.88,11.49,14.79,10.24l79.45-14.44c0,0,96.7,38.34,98.27,38.34
			c0.48-0.01,0.96-0.04,1.43-0.11c4.48,41.52,6.85,83.25,7.08,125.02L478.5,366.55c-6.57-2.48-13.91,0.83-16.39,7.39
			c-2.48,6.57,0.83,13.91,7.39,16.39c0.08,0.03,0.17,0.06,0.26,0.09l98.23,35.96l-52.82,7.87c-6.95,1-11.77,7.45-10.77,14.4
			c0.9,6.27,6.29,10.92,12.63,10.9c0.63,0,1.26-0.05,1.89-0.14l99-14.75c0,0,71.75,25.99,73.16,26.01
			c-0.64,38.62-3.39,77.18-8.27,115.5l-60.06-23.45l-38.58-81.6c-3.08-6.31-10.69-8.94-17-5.86c-6.21,3.02-8.87,10.45-5.99,16.73
			l27.07,57.26l-109.5-42.75c-6.48-2.71-13.93,0.35-16.64,6.83c-2.71,6.48,0.35,13.93,6.83,16.64c0.18,0.08,0.37,0.15,0.56,0.22
			L676.42,611c0.89,0.34,1.81,0.58,2.75,0.72c-5.52,35.74-13.33,71.09-23.36,105.83l-18.92-7.83l-25.27-68.07
			c-2.44-6.58-9.76-9.94-16.35-7.49c-6.58,2.44-9.94,9.76-7.49,16.35l17.06,45.94l-151.28-62.65c-6.47-2.73-13.93,0.29-16.66,6.76
			c-2.73,6.47,0.29,13.93,6.76,16.66c0.06,0.02,0.11,0.05,0.17,0.07l102.84,42.59l-37.72,10.21c-6.78,1.84-10.79,8.82-8.95,15.6
			c1.84,6.78,8.82,10.79,15.6,8.95l69.54-18.83l62.13,25.73c0.33,0.14,0.67,0.25,1,0.36c-10.33,31.72-22.95,62.65-37.75,92.54
			c36.11-10.91,70.16-27.74,100.76-49.82c3.5-15.88,6.94-32.9,10.2-50.86l100.07-81.89v-0.02c7.24-15.42,13.31-31.37,18.15-47.7
			l-111.88,91.56C731.65,670.47,734.94,643.86,737.33,616.31L737.33,616.31z"/>
		<path class="st4" d="M447.5,674.68c-0.03,41.92,39.34,52.12,39.34,104.7c0,36.18-14.7,45.83-26.42,65.85
			c-113.99,0-316.01-115.45-316.01-338.67c0-166.74,111.09-267.66,190.74-307.07c6.79-3.37,13.71-6.51,20.76-9.43
			c38.74-12.76,17.39-78.62,17.39-78.62c63.58,0,100.36,26.34,81.35,87.39c-2.97,9.55-7.3,19.9-7.33,34.89
			c-0.02,14.22,2.16,24.95,6.55,33.22c12.83,24.19,32.13,35.45,32.97,75.92c0.53,25.55-13.29,45.32-13.54,45.7
			c-11.43,17.29-25.97,30.33-25.97,63.42c-0.23,11.52,2.05,22.95,6.68,33.51c2.47,5.56,6.01,10.25,13.48,21.6
			c9.14,13.88,19.36,27.09,19.36,54c0,42.76-24.24,52.03-34.73,80.24l-0.02,0.02C450.15,646.6,447.51,650.23,447.5,674.68
			L447.5,674.68z"/>
		<g>
			<path class="st5" d="M485.77,357.39c-0.45,2.95-1.07,5.87-1.88,8.74c-2.15,7.56-5.47,14.73-9.84,21.27
				c-21.3,6.68-47.51,15.63-62.01,21.08c-52.17,19.61-137.68,65.92-191.11,114.45l73.39,8.25c6.98,0.78,12,7.08,11.22,14.06
				c-0.72,6.43-6.15,11.29-12.62,11.3c-0.48,0-95.75-10.67-95.75-10.67c-14.6,15.39-28.34,31.58-41.15,48.5
				c-2.9-10.64-5.25-21.43-7.04-32.32c20.79-25.21,58.83-65.46,104.19-98.23c0.3-0.22,32.6-89.77,32.6-89.77
				c2.42-6.59,9.72-9.98,16.31-7.56c6.59,2.42,9.98,9.72,7.57,16.31c-0.02,0.06-0.05,0.12-0.07,0.18l-22.11,58.84
				c46-28.61,95.34-51.48,146.9-68.1C444.8,370.33,470.82,361.82,485.77,357.39L485.77,357.39z"/>
			<path class="st5" d="M393.53,350.3c-2.04,4.58-6.59,7.54-11.6,7.53c-1.79,0-3.55-0.37-5.18-1.11l-70.58-31.52
				c-63.04,32.47-123.9,83.61-155.27,114.68c3.12-15.88,7.38-31.51,12.75-46.78c52.06-45.79,123.96-105.74,284.02-150.77
				c0.62,8.51,2.72,16.84,6.2,24.62c-42.47,11.68-84.69,28.77-117.75,43.76l50.99,22.79c6.4,2.84,9.29,10.34,6.44,16.74
				C393.55,350.27,393.54,350.29,393.53,350.3L393.53,350.3z"/>
			<path class="st5" d="M442.21,583.79c-0.91,6.24-6.26,10.88-12.57,10.89c-0.6,0-84.47-12.14-84.47-12.14
				c-22.75,17.05-44.34,35.58-64.65,55.47l91.76,10.79c6.98,0.78,12,7.08,11.22,14.06c-0.72,6.45-6.19,11.32-12.68,11.3
				c-0.49,0-111.39-13.13-112.24-13.42c-13.67,14.94-31.2,36.58-43.08,52.33c-5.47-7.01-10.67-14.24-15.59-21.68
				c41.73-54.81,113.13-129.99,225.14-190.09c5.23-2.81,18.61-10.22,28.95-15.78c0.25,0.56,13.24,21.27,13.48,21.6
				c-11.49,6.1-72.91,40.98-92.35,54.08l56.32,8.19C438.39,570.39,443.2,576.84,442.21,583.79L442.21,583.79z"/>
			<path class="st5" d="M447.44,675.03c-7.23,5.09-15.07,10.68-18.6,13.05c-46.4,31.12-89.73,67.59-124.35,105.2
				c-7.28-4.56-14.37-9.38-21.27-14.45c38.18-42.01,86.72-82.66,138.64-116.67c5.77-3.78,22.36-15.66,30.23-20.79
				C447.37,650.04,447.36,673.48,447.44,675.03L447.44,675.03z"/>
		</g>
	</g>
</g>
</svg>
