<?xml version="1.0" encoding="utf-8"?>
<!-- Generator: Adobe Illustrator 23.0.6, SVG Export Plug-In . SVG Version: 6.00 Build 0)  -->
<svg version="1.1" xmlns="http://www.w3.org/2000/svg" xmlns:xlink="http://www.w3.org/1999/xlink" x="0px" y="0px"
	 viewBox="0 0 1000 1000" style="enable-background:new 0 0 1000 1000;" xml:space="preserve">
<style type="text/css">
	.st0{fill:#92563A;}
	.st1{fill:#7A432A;}
	.st2{fill:#FAE890;}
	.st3{fill:#F5DF73;}
	.st4{fill:#FFB531;}
	.st5{fill:#FFA912;}
	.st6{fill:#EDD561;}
	.st7{fill:#FFCB73;}
	.st8{fill:#FFEF9E;}
</style>
<g id="Calque_1">
</g>
<g id="Calque_2">
	<g id="Flat">
		<path class="st0" d="M866.36,183.37c0,15.16-12.29,27.46-27.46,27.46H587.1c-2.25,6.36-5.28,12.42-9.03,18.04
			c-15.23,23.04-41.02,36.9-68.64,36.88h-82.37c-45.49,0-82.37-36.88-82.37-82.37S381.57,101,427.06,101h82.37
			c34.91-0.01,66.04,21.99,77.67,54.91H838.9c15.14-0.02,27.44,12.24,27.46,27.38C866.36,183.32,866.36,183.34,866.36,183.37z"/>
		<g>
			<path class="st1" d="M427.06,101v82.37c0,7.58-6.15,13.73-13.73,13.73s-13.73-6.15-13.73-13.73v-77.68
				C408.42,102.57,417.71,100.99,427.06,101z"/>
			<path class="st1" d="M468.25,197.1c-7.58,0-13.73-6.15-13.73-13.73V101h27.46v82.37C481.97,190.95,475.83,197.1,468.25,197.1z"/>
			<path class="st1" d="M536.89,105.7v77.67c0,7.58-6.15,13.73-13.73,13.73s-13.73-6.15-13.73-13.73V101
				C518.78,100.98,528.07,102.58,536.89,105.7z"/>
		</g>
		<path class="st2" d="M729.08,614.32c0.01,23.66-4.39,47.11-12.97,69.15l-79.73,204.99c-2.05,5.28-7.13,8.75-12.78,8.75H312.9
			c-5.66,0-10.74-3.48-12.78-8.75l-66.86-171.91l-12.87-33.08c-29.37-75.5-7.85-161.31,53.66-214.02l29.46-25.26v-68.64h329.47
			v68.64l23.96,20.54l5.51,4.72C704.74,505.7,729.09,558.62,729.08,614.32z"/>
		<path class="st3" d="M729.08,614.32c0.01,23.66-4.39,47.11-12.97,69.15l-79.73,204.99c-2.05,5.28-7.13,8.75-12.78,8.75H312.9
			c-5.66,0-10.74-3.48-12.78-8.75l-66.86-171.91c156.28-33.2,307.83-109.34,423.68-251.82l5.51,4.72
			C704.74,505.7,729.09,558.62,729.08,614.32z"/>
		<path class="st4" d="M729.08,614.32c0.01,23.66-4.39,47.11-12.97,69.15l-79.73,204.99c-2.05,5.28-7.13,8.75-12.78,8.75H312.9
			c-5.66,0-10.74-3.48-12.78-8.75l-66.86-171.91l-12.87-33.08c-14.34-36.89-16.86-77.34-7.21-115.73h186.43
			c22.74-0.01,41.18-18.44,41.18-41.18V265.74h-13.73c-34.91-0.02-66.02-22.01-77.68-54.91H587.1c-2.25,6.36-5.28,12.42-9.03,18.04
			c-15.23,23.04-41.02,36.9-68.64,36.88H495.7v260.83c0.01,22.74,18.44,41.18,41.18,41.18h186.43
			C727.14,582.98,729.08,598.62,729.08,614.32z"/>
		<path class="st5" d="M729.08,614.32c0.01,23.66-4.39,47.11-12.97,69.15l-79.73,204.99c-2.05,5.28-7.13,8.75-12.78,8.75H312.9
			c-5.66,0-10.74-3.48-12.78-8.75l-66.86-171.91c113.29-24.08,224.07-70.7,320.6-148.81h169.45
			C727.14,582.98,729.08,598.62,729.08,614.32z"/>
		<path class="st3" d="M612.39,430.47h-247.1c-11.37,0-20.59,9.22-20.59,20.59c0,11.37,9.22,20.59,20.59,20.59h247.1
			c11.37,0,20.59-9.22,20.59-20.59C632.98,439.69,623.76,430.47,612.39,430.47z"/>
		<path class="st6" d="M440.79,430.47h54.91v41.18h-54.91V430.47z"/>
		<path class="st7" d="M276.05,614.32c-0.01-15.98,3.12-31.81,9.23-46.57h-29.22c-1.09,3.31-2.09,6.65-2.94,10.04
			c-7.57,30.11-5.6,61.83,5.65,90.76l26.8,68.91l25.59-9.95l-26.8-68.91C278.86,644.48,276.04,629.47,276.05,614.32L276.05,614.32z"
			/>
		<path class="st8" d="M318.7,521.59l14.06-12.05l-17.87-20.84l-14.05,12.05c-2.35,2.01-4.67,4.12-6.88,6.27l19.11,19.72
			C314.88,524.97,316.77,523.24,318.7,521.59L318.7,521.59z"/>
		<path class="st8" d="M287.21,563.33c3.68-8.02,8.22-15.63,13.53-22.68l-21.9-16.55c-6.5,8.62-12.06,17.92-16.56,27.74
			c-2.37,5.18-4.44,10.49-6.2,15.91h29.22C285.9,566.26,286.52,564.79,287.21,563.33z"/>
	</g>
</g>
</svg>
