<?xml version="1.0" encoding="utf-8"?>
<!-- Generator: Adobe Illustrator 23.0.6, SVG Export Plug-In . SVG Version: 6.00 Build 0)  -->
<svg version="1.1" xmlns="http://www.w3.org/2000/svg" xmlns:xlink="http://www.w3.org/1999/xlink" x="0px" y="0px"
	 viewBox="0 0 1000 1000" style="enable-background:new 0 0 1000 1000;" xml:space="preserve">
<style type="text/css">
	.st0{fill:#BF7341;}
	.st1{fill:#B56D3E;}
	.st2{fill:#E6CCAF;}
	.st3{fill:#F0DBC2;}
	.st4{fill:#965735;}
	.st5{fill:#D4B99B;}
</style>
<g id="Calque_1">
</g>
<g id="Calque_2">
	<path class="st0" d="M842.68,262.73H290.05c-69.76,0-126.32,56.56-126.32,126.32v252.63h773.68c17.45,0,31.58-14.13,31.58-31.58
		V389.05C969,319.29,912.44,262.73,842.68,262.73z"/>
	<path class="st1" d="M635.12,641.68h302.3c17.45,0,31.58-14.13,31.58-31.58V389.05c-0.02-15.95-3.05-31.74-8.97-46.55
		C874.55,513.99,729.71,600.99,635.12,641.68z"/>
	<path class="st2" d="M511.11,262.73H290.05c-69.76,0-126.32,56.56-126.32,126.32V610.1c0,17.45,14.13,31.58,31.58,31.58h410.52
		c17.45,0,31.58-14.13,31.58-31.58V389.05C637.42,319.29,580.86,262.73,511.11,262.73z"/>
	<path class="st3" d="M400.58,357.47H179.53c-69.76,0-126.32,56.56-126.32,126.32v221.05c0,17.45,14.13,31.58,31.58,31.58h410.52
		c17.45,0,31.58-14.13,31.58-31.58V483.78C526.9,414.02,470.34,357.47,400.58,357.47z"/>
	<g>
		
			<rect x="757.19" y="452.21" transform="matrix(0.7071 -0.7071 0.7071 0.7071 -102.6109 688.2751)" class="st4" width="44.65" height="31.58"/>
		
			<rect x="858.47" y="366.66" transform="matrix(0.7071 -0.7071 0.7071 0.7071 -18.9923 732.1231)" class="st4" width="31.58" height="44.65"/>
		
			<rect x="678.25" y="325.89" transform="matrix(0.7071 -0.7071 0.7071 0.7071 -36.4098 595.4586)" class="st4" width="44.65" height="31.58"/>
		
			<rect x="684.8" y="524.61" transform="matrix(0.7071 -0.7071 0.7071 0.7071 -181.544 655.5813)" class="st4" width="31.58" height="44.65"/>
		
			<rect x="858.47" y="524.57" transform="matrix(0.7071 -0.7071 0.7071 0.7071 -130.6519 778.3746)" class="st4" width="31.58" height="44.65"/>
	</g>
	
		<rect x="542.69" y="350.94" transform="matrix(0.7071 -0.7071 0.7071 0.7071 -100.3623 504.2286)" class="st5" width="31.58" height="44.65"/>
	<g>
		
			<rect x="251.95" y="420.62" transform="matrix(0.7071 -0.7071 0.7071 0.7071 -228.2546 321.7629)" class="st2" width="44.65" height="31.58"/>
		
			<rect x="195.39" y="650.93" transform="matrix(0.7071 -0.7071 0.7071 0.7071 -414.2061 346.5204)" class="st2" width="31.58" height="44.65"/>
		
			<rect x="116.41" y="524.64" transform="matrix(0.7071 -0.7071 0.7071 0.7071 -348.0403 253.6796)" class="st2" width="31.58" height="44.65"/>
		
			<rect x="432.21" y="477.21" transform="matrix(0.7071 -0.7071 0.7071 0.7071 -222.0114 463.0952)" class="st2" width="31.58" height="44.65"/>
		
			<rect x="362.47" y="562.73" transform="matrix(0.7071 -0.7071 0.7071 0.7071 -296.3686 441.5363)" class="st2" width="44.65" height="31.58"/>
	</g>
</g>
</svg>
