<?xml version="1.0" encoding="utf-8"?>
<!-- Generator: Adobe Illustrator 23.0.6, SVG Export Plug-In . SVG Version: 6.00 Build 0)  -->
<svg version="1.1" xmlns="http://www.w3.org/2000/svg" xmlns:xlink="http://www.w3.org/1999/xlink" x="0px" y="0px"
	 viewBox="0 0 1000 1000" style="enable-background:new 0 0 1000 1000;" xml:space="preserve">
<style type="text/css">
	.st0{fill:#F09E3E;}
	.st1{fill:#D68033;}
	.st2{fill:#F0DBC2;}
	.st3{fill:#E6CCAF;}
	.st4{fill:#F09235;}
</style>
<g id="Calque_1">
</g>
<g id="Calque_2">
	<path class="st0" d="M154.05,329.36L154.05,329.36c0,36.4,29.51,65.92,65.92,65.92l0,0v263.67c0,18.21,14.75,32.96,32.96,32.96
		h626.21c18.21,0,32.96-14.75,32.96-32.96V395.27l0,0c36.4,0,65.92-29.51,65.92-65.92l0,0c0-36.4-29.51-65.92-65.92-65.92H219.96
		C183.56,263.44,154.05,292.96,154.05,329.36z"/>
	<rect x="813.21" y="593.02" class="st1" width="32.96" height="32.96"/>
	<path class="st2" d="M154.05,329.36L154.05,329.36c0,36.4,29.51,65.92,65.92,65.92l0,0v263.67c0,18.21,14.75,32.96,32.96,32.96
		h263.67c18.21,0,32.96-14.75,32.96-32.96V395.27l0,0c36.4,0,65.92-29.51,65.92-65.92l0,0c0-36.4-29.51-65.92-65.92-65.92H219.96
		C183.56,263.44,154.05,292.96,154.05,329.36z"/>
	<path class="st3" d="M154.05,329.36L154.05,329.36c0,36.4,29.51,65.92,65.92,65.92l0,0v263.67c0,18.21,14.75,32.96,32.96,32.96
		h263.67c18.21,0,32.96-14.75,32.96-32.96V395.27l0,0c36.4,0,65.92-29.51,65.92-65.92l0,0c0-36.4-29.51-65.92-65.92-65.92H219.96
		C183.56,263.44,154.05,292.96,154.05,329.36z"/>
	<g>
		<rect x="648.42" y="378.8" class="st1" width="32.96" height="32.96"/>
		<rect x="615.46" y="510.63" class="st1" width="32.96" height="32.96"/>
		<rect x="714.34" y="378.8" class="st1" width="197.75" height="32.96"/>
		<rect x="681.38" y="593.02" class="st1" width="32.96" height="32.96"/>
		<rect x="747.29" y="461.19" class="st1" width="32.96" height="32.96"/>
	</g>
	<path class="st2" d="M22.21,428.23L22.21,428.23c0,36.4,29.51,65.92,65.92,65.92l0,0v263.67c0,18.21,14.75,32.96,32.96,32.96
		h263.67c18.21,0,32.96-14.75,32.96-32.96V494.15l0,0c36.4,0,65.92-29.51,65.92-65.92l0,0c0-36.4-29.51-65.92-65.92-65.92H88.13
		C51.73,362.32,22.21,391.83,22.21,428.23z"/>
	<path class="st4" d="M852.3,411.75C809.19,520.91,739.04,617.31,648.42,691.9h230.71c18.21,0,32.96-14.75,32.96-32.96V411.75H852.3
		z"/>
</g>
</svg>
