<?xml version="1.0" encoding="utf-8"?>
<!-- Generator: Adobe Illustrator 23.0.6, SVG Export Plug-In . SVG Version: 6.00 Build 0)  -->
<svg version="1.1" xmlns="http://www.w3.org/2000/svg" xmlns:xlink="http://www.w3.org/1999/xlink" x="0px" y="0px"
	 viewBox="0 0 1000 1000" style="enable-background:new 0 0 1000 1000;" xml:space="preserve">
<style type="text/css">
	.st0{fill:#D6D6D4;}
	.st1{fill:#E0E0DE;}
	.st2{fill:#DBDBD9;}
	.st3{fill:#EBEBE9;}
	.st4{fill:#C7C7C5;}
	.st5{fill:#FFB531;}
	.st6{fill:#FFA912;}
</style>
<g id="Calque_1">
</g>
<g id="Calque_2">
	<path class="st0" d="M436.92,226.76c155.16,0,234.07,89.8,234.07,200.63s-78.91,200.63-234.07,200.63s-327.7-89.85-327.7-200.63
		S281.76,226.76,436.92,226.76z"/>
	<g>
		<path class="st1" d="M311.83,286.7c-9.74,3.08-19.39,6.5-28.69,10.2l9.84,24.86c8.73-3.45,17.76-6.69,26.9-9.54L311.83,286.7z"/>
		<path class="st1" d="M152.35,406.97l25.68,7.5c8.36-28.63,43.46-59.88,93.88-83.61l-11.4-24.2
			C202.41,334.01,162.98,370.56,152.35,406.97z"/>
		<path class="st1" d="M885,447.46c0,155.08-89.83,234.07-200.63,234.07s-200.63-78.91-200.63-234.07s89.83-327.7,200.63-327.7
			S885,292.3,885,447.46z"/>
	</g>
	<path class="st2" d="M816.04,209c-10.27,242.1-165.19,362.28-269.52,417.51c36.57,36.31,86.33,56.17,137.85,55.02
		c110.81,0,200.63-78.91,200.63-234.07C884.69,363.1,860.8,280.5,816.04,209z"/>
	<path class="st3" d="M605.45,204.61c-5.73,6.69-11.1,13.7-16.05,21l22.08,15.11c4.41-6.5,9.17-12.75,14.26-18.72L605.45,204.61z"/>
	<path class="st3" d="M525.44,412.76l26.64,2.42c4.89-53.01,20.31-104.51,45.35-151.49l-23.47-12.86
		C547.02,300.99,530.53,356.07,525.44,412.76z"/>
	<path class="st1" d="M430.04,521.02c-109.57,0-198.49,41-200.45,91.92c0,1.75,0.15,3.41,0.19,5.13
		c3.91,148.29,91.94,223.96,200.26,223.96c108.32,0,196.36-75.65,200.26-223.95c0-1.72,0.18-3.38,0.2-5.13
		C628.54,562.02,539.63,521.02,430.04,521.02z"/>
	<path class="st2" d="M430.04,521.02c-40.86-0.42-81.51,5.94-120.28,18.84c-1.1,86.42,16.05,221.42,119.43,302.14h0.86
		c108.34,0,196.36-75.66,200.26-223.95c0-1.72,0.18-3.38,0.2-5.13C628.54,562.02,539.63,521.02,430.04,521.02z"/>
	<path class="st4" d="M630.86,614.65c0-51.71-89.83-93.63-200.63-93.63s-200.63,41.92-200.63,93.63c0,24.07,19.81,45.97,51.94,62.53
		l28.32,17.73l53.5-13.38l53.5,26.75l74.68-24.53l53.5,13.38l32.33-18.98C610.47,661.47,630.86,639.18,630.86,614.65z"/>
	<path class="st5" d="M430.23,601.28c-66.47,0-122.59,34.07-140.83,80.83l20.45,12.8l53.5-13.38l53.5,26.75l74.68-24.53l53.5,13.38
		l25.96-15.24C552.65,635.23,496.6,601.28,430.23,601.28z"/>
	<path class="st6" d="M494.83,612.89c-20.14,38.52-63.02,65.17-103.43,82.64l25.45,12.75l74.68-24.53l53.5,13.38l25.96-15.24
		C556.37,649.25,528.75,624.23,494.83,612.89z"/>
</g>
</svg>
