<?xml version="1.0" encoding="utf-8"?>
<!-- Generator: Adobe Illustrator 23.0.6, SVG Export Plug-In . SVG Version: 6.00 Build 0)  -->
<svg version="1.1" xmlns="http://www.w3.org/2000/svg" xmlns:xlink="http://www.w3.org/1999/xlink" x="0px" y="0px"
	 viewBox="0 0 1000 1000" style="enable-background:new 0 0 1000 1000;" xml:space="preserve">
<style type="text/css">
	.st0{fill:#D8D7DA;}
	.st1{fill:#ACABB1;}
	.st2{fill:#BDEBFF;}
	.st3{fill:#92D8FF;}
	.st4{fill:#FF737D;}
	.st5{fill:#ED5151;}
	.st6{fill:#898890;}
	.st7{fill:#7C897C;}
	.st8{fill:#5D685D;}
</style>
<g id="Calque_1">
</g>
<g id="Calque_2">
	<circle class="st0" cx="503.11" cy="265.24" r="213.02"/>
	<path class="st1" d="M594.24,72.66C544.46,122.07,493.47,207.89,481,355.39c0.69,0,0.72,59.71,0.56,121.79
		c7.08,0.71,14.27,1.08,21.54,1.08c117.64,0,213.02-95.37,213.02-213.02C716.12,180.2,666.29,106.82,594.24,72.66z"/>
	<path class="st2" d="M710.81,302.17H295.4l-75.1,477.85C206.44,868.24,274.64,948,363.94,948h278.33
		c89.31,0,157.51-79.76,143.64-167.98L710.81,302.17z"/>
	<path class="st3" d="M710.81,302.17H390.17v63.11c0,0,117.69,27.32,90.83,207.33C458.69,722.18,384.82,848.24,446.82,948h195.45
		c89.31,0,157.51-79.76,143.64-167.98L710.81,302.17z"/>
	<path class="st4" d="M712.02,365.28H294.19c-33.57,0-61.03-27.46-61.03-61.03l0,0c0-33.57,27.46-61.03,61.03-61.03h417.82
		c33.57,0,61.03,27.46,61.03,61.03l0,0C773.05,337.81,745.58,365.28,712.02,365.28z"/>
	<path class="st5" d="M773.05,304.25L773.05,304.25c0-33.57-27.46-61.03-61.03-61.03H481.24c-33.57,0-61.03,27.46-61.03,61.03l0,0
		c0,33.57,27.46,61.03,61.03,61.03h230.78C745.58,365.28,773.05,337.81,773.05,304.25z"/>
	<g>
		<path class="st1" d="M503.11,52.22c-20.09,0-39.53,2.79-57.95,7.98c3.89,28.54,28.35,50.53,57.95,50.53s54.06-21.99,57.95-50.53
			C542.63,55.01,523.19,52.22,503.11,52.22z"/>
		<path class="st1" d="M305.02,186.76c7.99,4.1,17.04,6.42,26.64,6.42c32.32,0,58.51-26.2,58.51-58.51
			c0-15.22-5.82-29.08-15.34-39.49C343.89,118.55,319.53,150.16,305.02,186.76z"/>
	</g>
	<path class="st6" d="M701.2,186.76c-14.51-36.59-38.87-68.21-69.81-91.58c-9.53,10.41-15.34,24.27-15.34,39.49
		c0,32.32,26.2,58.51,58.51,58.51C684.15,193.18,693.2,190.85,701.2,186.76z"/>
	<path class="st7" d="M713.66,791.38l-41.21-262.22l0,0c0,0-13.15-83.84-97.87-57.08c-10.6,3.35-22.18,1.88-31.48-4.21
		c-11.49-7.52-25.23-11.9-40-11.9c-15.19,0-29.3,4.64-40.99,12.57c-8.72,5.91-19.74,7.48-29.89,4.67
		c-88.94-24.61-98.46,55.96-98.46,55.96l-41.21,262.22c-3.28,20.87,2.33,41.22,15.82,57.41c14,16.82,35.13,26.07,57.01,26.07h275.45
		c21.89,0,43.01-9.25,57.02-26.08C711.33,832.59,716.94,812.24,713.66,791.38z"/>
	<path class="st8" d="M672.45,529.16L672.45,529.16c0,0-13.15-83.84-97.87-57.08c-10.6,3.35-22.18,1.88-31.48-4.21
		c-11.49-7.52-25.23-11.9-40-11.9c-9.14,0-17.88,1.69-25.95,4.75c8.01,28.4,10.85,64.94,3.84,111.89
		c-17.17,115.1-64.86,216.27-57.68,302.25h217.51c21.89,0,43.01-9.25,57.02-26.08c13.48-16.19,19.09-36.54,15.82-57.41
		L672.45,529.16z"/>
</g>
</svg>
